<?xml version="1.0" standalone="no"?>
<!DOCTYPE svg PUBLIC "-//W3C//DTD SVG 20010904//EN"
 "http://www.w3.org/TR/2001/REC-SVG-20010904/DTD/svg10.dtd">
<svg version="1.0" xmlns="http://www.w3.org/2000/svg"
 width="50px" height="39px" viewBox="0 0 960.000000 949.000000"
 preserveAspectRatio="xMidYMid meet">
<metadata>
Created by potrace 1.15, written by Peter Selinger 2001-2017
</metadata>
<g transform="translate(0.000000,949.000000) scale(0.100000,-0.100000)"
fill="#000000" stroke="none">
<path d="M5378 9306 c-10 -7 -18 -18 -18 -25 0 -6 -8 -11 -18 -11 -29 0 -71
-23 -76 -42 -2 -10 -17 -23 -32 -28 -71 -27 -104 31 -39 68 15 9 16 11 4 12
-25 0 -50 -34 -47 -67 1 -22 6 -29 17 -25 9 3 12 1 7 -6 -3 -6 -2 -13 4 -17 5
-3 10 -2 10 3 0 5 13 12 29 15 16 3 36 14 45 23 13 12 20 14 29 5 6 -6 20 -11
32 -11 15 0 12 5 -14 17 l-34 17 31 14 c27 13 32 13 47 -2 9 -9 12 -16 6 -16
-15 0 -14 -65 2 -78 6 -5 23 -12 37 -14 19 -2 26 -10 28 -33 5 -42 28 -65 61
-59 19 4 34 -2 60 -25 31 -28 32 -31 22 -64 -15 -43 -36 -63 -81 -74 -31 -8
-37 -6 -57 18 -31 36 -31 91 0 120 18 18 19 21 4 15 -10 -3 -28 0 -39 8 -14
10 -29 12 -49 6 -29 -8 -29 -8 -29 31 0 53 -30 83 -73 75 -18 -4 -37 -7 -44
-8 -7 -1 -10 -5 -8 -9 7 -10 -21 -19 -60 -19 -40 0 -65 -9 -65 -22 0 -7 4 -7
13 0 7 6 27 10 45 10 22 -1 29 -4 20 -10 -10 -6 -10 -10 -1 -16 15 -9 -29 -62
-51 -62 -20 0 -39 27 -32 45 3 8 1 15 -4 15 -5 0 -7 6 -4 14 10 26 -15 56 -45
56 -40 0 -57 -23 -42 -56 10 -22 17 -26 46 -22 30 3 35 1 35 -17 0 -12 5 -26
11 -32 8 -8 6 -18 -7 -37 -16 -21 -27 -25 -67 -26 -37 0 -53 -5 -72 -25 -29
-28 -33 -76 -9 -96 18 -14 116 -20 125 -7 3 4 5 -8 6 -28 1 -21 -4 -37 -12
-40 -54 -21 -85 5 -49 40 8 9 11 16 6 16 -29 0 -38 -54 -17 -104 6 -13 3 -23
-8 -31 -9 -7 -14 -15 -10 -19 4 -4 0 -4 -10 0 -12 4 -26 -3 -44 -22 l-26 -28
-9 23 c-7 20 -13 23 -43 18 -32 -5 -35 -4 -35 19 0 18 5 24 22 24 12 0 30 8
41 18 11 9 17 12 14 5 -10 -17 10 -63 28 -63 19 0 20 16 0 24 -41 15 3 74 45
61 12 -4 20 -2 20 4 0 14 -46 14 -72 0 -17 -9 -23 -8 -30 5 -17 30 -78 14 -78
-21 0 -20 17 -15 23 7 5 20 31 27 41 11 12 -19 -6 -39 -34 -37 -16 1 -32 5
-36 9 -4 4 -23 7 -42 7 -19 0 -45 9 -59 20 -25 20 -52 16 -68 -10 -12 -19 5
-48 30 -53 30 -5 34 8 5 16 -30 8 -27 47 4 47 29 0 39 -21 26 -55 -10 -26 -4
-55 11 -55 6 0 5 -8 -1 -19 -16 -31 -12 -69 10 -84 19 -13 19 -15 4 -27 -13
-12 -19 -12 -37 0 -22 13 -22 13 -3 -8 21 -25 15 -52 -12 -52 -28 0 -46 25
-34 47 10 19 6 43 -8 43 -4 0 -6 -8 -3 -19 3 -12 -5 -26 -23 -40 l-28 -22 -8
22 c-5 11 -7 33 -6 48 2 23 6 26 28 23 34 -5 69 31 54 56 -16 25 -70 28 -84 5
-16 -25 -96 -19 -111 8 -5 10 -15 19 -21 19 -6 0 -3 -9 7 -20 15 -16 15 -22 5
-35 -7 -8 -20 -15 -30 -15 -23 0 -34 28 -19 46 9 11 8 14 0 14 -7 0 -19 7 -28
16 -24 23 -67 14 -71 -15 -6 -38 33 -54 62 -25 15 14 16 14 16 -5 0 -11 5 -23
10 -26 6 -4 8 -15 5 -24 -3 -10 1 -23 8 -30 12 -9 13 -7 9 14 -3 19 0 25 13
25 11 0 15 -7 13 -22 -4 -32 30 -68 63 -68 15 0 30 3 32 8 3 4 -9 7 -26 7 -41
0 -64 37 -48 78 9 22 17 27 45 27 42 0 58 -18 50 -59 -4 -19 -2 -37 7 -47 10
-12 10 -17 0 -23 -8 -5 3 -10 29 -14 51 -7 70 -22 70 -57 0 -39 -44 -74 -84
-66 -50 10 -70 59 -45 109 10 21 10 21 -5 3 -24 -30 -20 -73 9 -102 21 -21 24
-30 17 -57 -7 -26 -13 -32 -33 -29 -24 2 -23 2 4 -13 35 -20 36 -58 2 -81 -13
-8 -32 -14 -42 -12 -25 5 -28 45 -6 70 18 21 18 21 -4 9 -44 -23 -40 -82 6
-94 47 -12 112 56 82 86 -17 17 -13 26 8 20 10 -3 29 1 41 7 19 10 21 18 17
46 -7 41 17 59 39 30 15 -21 43 -18 58 7 9 15 7 22 -12 37 -12 10 -26 20 -31
22 -4 2 -11 15 -15 31 -5 22 -3 27 13 27 10 0 24 7 31 15 10 12 16 12 26 4 14
-11 64 -8 97 6 12 5 17 3 17 -9 0 -21 46 -32 63 -15 7 8 19 29 26 47 10 23 20
32 37 32 13 0 26 -1 28 -2 2 -2 13 5 24 15 14 13 28 17 43 12 l23 -8 -27 -19
c-15 -11 -27 -28 -27 -38 0 -15 -7 -17 -47 -15 -39 3 -50 -1 -65 -20 -22 -28
-24 -73 -3 -81 33 -13 9 -66 -26 -57 -21 6 -25 33 -7 51 9 9 9 12 0 12 -7 0
-17 -11 -22 -25 -8 -22 -13 -24 -31 -15 -38 21 -65 -22 -33 -54 20 -20 54 -5
54 25 0 18 1 19 24 4 13 -9 26 -25 29 -36 7 -28 52 -23 53 6 1 15 0 16 -3 3
-5 -20 -28 -24 -38 -8 -4 6 -1 18 6 27 7 8 18 25 24 37 6 11 19 20 28 18 9 -1
28 5 43 14 21 14 25 24 22 51 -2 18 0 33 5 33 4 0 5 4 2 10 -8 13 13 50 28 50
7 0 13 9 14 20 1 11 -2 20 -8 20 -16 0 -10 36 9 52 11 11 24 13 37 8 32 -13
42 -11 21 5 -25 19 -60 19 -76 0 -10 -12 -16 -10 -42 16 -28 28 -29 31 -14 48
9 10 16 27 16 39 0 12 4 22 9 22 5 0 16 3 24 6 9 3 16 -2 20 -15 6 -26 53 -38
81 -21 20 12 20 12 3 -13 -23 -36 -21 -63 5 -81 12 -9 17 -16 11 -16 -6 0 -13
-10 -15 -22 -2 -15 -13 -25 -35 -32 -32 -9 -43 -29 -23 -41 6 -3 7 -22 4 -43
-3 -20 -8 -52 -11 -70 -3 -18 0 -39 7 -47 14 -17 66 -20 75 -5 12 19 22 10 17
-15 -2 -14 1 -31 7 -38 8 -11 5 -19 -14 -35 -29 -25 -32 -47 -9 -60 16 -9 15
-12 -2 -35 -20 -28 -64 -37 -64 -14 0 8 -8 21 -18 30 -15 14 -21 15 -36 4 -23
-17 -17 -49 9 -57 24 -6 27 -52 7 -88 -16 -29 -7 -59 20 -68 21 -6 21 -7 -5
-21 -20 -10 -27 -21 -27 -43 0 -27 -3 -30 -30 -30 -16 0 -30 4 -30 9 0 16 -60
32 -81 20 -23 -12 -26 -67 -5 -75 8 -3 12 -13 8 -26 -11 -43 71 -67 96 -28 7
11 22 20 34 20 12 0 18 3 15 7 -4 3 -2 12 3 19 6 6 9 18 8 25 -2 9 12 15 40
19 41 6 42 6 42 -22 0 -15 -5 -28 -11 -28 -6 0 -3 -8 6 -17 16 -16 16 -17 0
-29 -9 -7 -22 -11 -29 -8 -6 2 -17 -4 -25 -14 -11 -15 -20 -18 -52 -12 -46 9
-51 3 -10 -11 19 -7 31 -19 34 -35 4 -20 0 -24 -22 -25 -26 0 -26 0 -3 -9 18
-8 22 -15 18 -37 -2 -16 -5 -32 -5 -36 -1 -5 -5 -5 -11 -2 -7 4 -7 -3 0 -20 8
-22 6 -32 -10 -55 -31 -44 -59 -48 -86 -15 -26 33 -37 76 -22 90 8 7 9 6 4 -2
-4 -7 -2 -13 4 -13 6 0 13 6 16 14 3 8 13 12 26 8 14 -3 19 -1 14 6 -4 7 -3
12 3 12 5 0 11 -4 13 -9 2 -4 12 -5 23 0 19 7 19 8 -3 8 -19 1 -22 6 -20 32 2
23 -3 36 -23 51 -32 24 -108 28 -121 5 -6 -12 -18 -14 -46 -10 -20 3 -41 10
-47 14 -17 17 -24 9 -16 -19 8 -27 7 -28 -28 -27 -26 0 -37 5 -39 18 -5 23 17
50 35 43 7 -3 13 -1 13 4 0 15 46 60 62 60 23 0 41 26 33 50 -4 14 -15 20 -36
20 -22 0 -29 5 -29 19 0 25 -35 50 -61 44 -28 -8 -44 -45 -31 -69 8 -15 6 -25
-9 -43 -16 -19 -25 -22 -52 -18 -29 6 -28 4 13 -16 41 -20 45 -25 45 -59 0
-44 25 -78 58 -78 32 0 38 -8 25 -35 -7 -15 -16 -21 -29 -18 -19 5 -23 15 -20
42 2 7 -2 10 -8 6 -6 -3 -11 -16 -11 -28 0 -12 -7 -31 -15 -41 -8 -11 -15 -27
-15 -35 0 -9 -14 -24 -30 -33 -17 -9 -30 -24 -30 -31 0 -12 -49 -31 -57 -23
-1 1 3 18 9 39 8 27 8 40 -1 51 -16 19 -121 26 -121 9 0 -7 -4 -13 -9 -13 -6
0 -8 -22 -6 -50 2 -44 1 -50 -16 -50 -23 0 -59 -34 -59 -55 0 -23 37 -55 63
-55 13 0 33 10 45 23 22 24 30 67 12 67 -5 0 -10 -13 -10 -29 0 -23 -6 -31
-28 -39 -36 -12 -62 1 -62 33 0 33 26 45 88 40 28 -2 54 1 57 6 9 14 25 1 25
-20 0 -22 31 -51 53 -51 14 0 15 -3 5 -19 -9 -15 -9 -23 1 -35 8 -9 18 -16 24
-16 6 0 2 6 -8 14 -11 8 -16 19 -12 30 9 24 26 20 37 -9 9 -25 11 -25 35 -9
31 20 91 13 111 -13 16 -21 18 -59 4 -68 -5 -3 -10 -11 -10 -16 0 -6 5 -7 10
-4 6 3 10 1 10 -5 0 -6 11 -15 25 -22 24 -11 24 -11 7 -40 -22 -37 -13 -52 47
-85 2 -1 -10 -13 -25 -27 -22 -18 -33 -22 -47 -14 -22 11 -62 -11 -72 -41 -3
-10 -17 -26 -30 -35 -31 -20 -34 -62 -5 -70 11 -3 30 -9 41 -12 13 -4 19 -2
16 3 -4 6 4 20 17 32 17 16 30 20 49 16 40 -11 53 -31 37 -60 -10 -20 -21 -25
-50 -25 -20 0 -41 5 -48 12 -7 7 -12 8 -12 2 0 -6 5 -15 10 -20 8 -8 6 -15 -5
-24 -12 -10 -21 -10 -42 -1 -31 14 -43 7 -13 -9 29 -15 23 -54 -8 -58 -23 -3
-52 13 -52 29 0 4 7 15 16 23 8 9 12 16 7 16 -15 0 -33 -23 -33 -42 0 -10 12
-25 26 -35 24 -15 29 -16 54 -1 19 11 32 13 45 6 12 -7 25 -6 44 3 14 7 45 12
68 10 38 -2 43 0 49 24 7 28 -17 65 -44 65 -12 0 -11 4 4 21 23 25 22 22 6 41
-11 14 -9 16 10 15 22 0 49 5 95 18 29 9 37 -26 8 -42 -17 -10 -15 -11 18 -8
38 4 49 -9 25 -33 -17 -17 -45 -15 -57 6 -6 9 -11 12 -11 5 0 -7 7 -18 16 -25
54 -45 58 -50 41 -63 -17 -12 -23 -35 -9 -35 15 0 31 52 22 71 -7 12 -7 20 1
24 5 4 14 18 19 31 5 13 17 24 27 24 9 0 27 10 40 22 31 29 40 16 18 -25 -15
-28 -16 -37 -5 -57 11 -20 10 -25 -11 -41 -28 -21 -35 -23 -44 -9 -3 6 -11 10
-17 10 -7 0 -5 -7 4 -17 15 -18 35 -64 22 -51 -4 4 -16 3 -26 -3 -14 -8 -23
-8 -31 0 -17 17 -31 13 -16 -5 9 -11 22 -14 45 -9 25 4 35 2 42 -12 8 -13 3
-23 -19 -44 -31 -28 -31 -53 0 -75 19 -14 23 -79 9 -117 -8 -20 -8 -31 -1 -35
6 -4 14 -22 18 -39 7 -36 25 -45 25 -13 0 11 -4 20 -10 20 -5 0 -2 16 7 35 12
24 19 31 25 23 5 -9 8 -8 8 5 0 23 -12 22 -33 -3 -18 -22 -37 -26 -37 -9 0 5
5 7 10 4 10 -6 15 26 11 76 -2 22 3 27 29 32 19 4 34 15 39 29 9 24 16 17 23
-27 3 -17 11 -20 51 -18 43 1 47 -1 47 -22 0 -20 -5 -24 -31 -23 -19 1 -37 -6
-44 -15 -7 -10 -19 -17 -28 -17 -22 0 -30 -17 -11 -24 25 -10 13 -49 -20 -64
l-30 -13 22 -15 c12 -8 26 -13 31 -10 10 6 35 -21 45 -49 4 -11 4 -16 0 -12
-4 4 -12 3 -18 -2 -20 -15 -60 -20 -73 -9 -18 15 -16 48 5 64 16 13 16 13 -1
14 -11 0 -23 -13 -32 -32 -12 -30 -16 -32 -54 -29 -23 1 -41 -1 -41 -6 0 -5
18 -9 40 -10 49 -1 70 -17 70 -53 0 -75 -139 -102 -148 -29 -2 14 9 49 24 78
24 49 27 72 13 120 -2 9 6 17 20 20 14 4 26 12 28 18 3 9 -5 9 -31 1 -39 -12
-106 3 -127 29 -19 22 -13 64 14 90 30 31 86 38 135 18 24 -10 32 -11 30 -3
-6 16 -55 28 -101 25 -38 -3 -38 -3 -37 32 3 57 2 59 -30 66 -46 10 -88 -20
-92 -64 -3 -33 -5 -36 -31 -33 -37 5 -57 -13 -57 -49 0 -41 38 -59 75 -35 14
9 25 25 25 36 0 22 25 27 50 9 11 -8 12 -12 3 -16 -20 -7 -16 -70 5 -85 33
-24 35 -38 9 -58 -42 -33 -43 -78 -5 -133 11 -14 10 -19 0 -26 -17 -10 -12
-53 6 -59 11 -3 11 0 1 16 -10 16 -9 23 3 41 15 21 17 21 33 5 9 -9 14 -25 12
-36 -3 -10 -1 -16 4 -12 5 3 9 -2 9 -10 0 -9 9 -21 20 -28 23 -15 26 -28 6
-28 -8 0 -16 -5 -18 -11 -2 -6 -14 -5 -33 5 -42 22 -62 20 -91 -9 -14 -14 -28
-25 -33 -25 -4 0 -13 19 -20 42 -11 36 -11 42 3 50 20 11 21 54 2 61 -10 4
-13 17 -9 45 5 35 2 42 -21 57 -32 21 -76 13 -83 -15 -7 -27 -14 -25 -49 11
-49 51 -156 135 -214 167 -117 65 -353 156 -619 238 -11 4 -11 7 0 21 13 15
12 15 -8 5 -15 -8 -30 -9 -46 -3 -14 6 -27 8 -30 5 -5 -6 -173 33 -196 46 -15
8 -74 16 -146 19 -11 1 -27 6 -35 11 -13 8 -12 11 5 24 34 26 85 19 98 -14 4
-10 6 -8 6 7 1 16 -6 24 -24 29 -36 9 -92 -4 -99 -23 -5 -13 -17 -14 -69 -9
-34 4 -82 11 -107 16 -52 10 -295 35 -520 52 -207 16 -814 16 -1020 0 -511
-40 -837 -97 -976 -171 -107 -57 -133 -127 -73 -196 33 -37 160 -105 198 -105
46 0 47 90 2 105 -59 18 10 60 154 93 179 42 539 84 579 69 15 -6 15 -10 -3
-45 -42 -83 -102 -347 -172 -757 -56 -325 -44 -559 35 -729 29 -62 58 -94 104
-113 38 -16 104 -10 120 10 15 19 23 146 14 210 -5 32 -16 63 -25 70 -8 6 -16
21 -17 32 -3 32 0 41 9 26 13 -20 41 -6 41 20 0 18 -5 20 -26 16 l-26 -5 5
212 c4 197 7 224 47 421 58 293 139 648 150 659 5 5 182 6 407 3 311 -5 437
-10 578 -27 99 -11 220 -25 270 -31 49 -5 91 -12 93 -14 3 -2 -3 -11 -12 -20
-19 -20 -20 -26 -3 -49 30 -40 95 3 69 45 -13 20 -12 21 10 16 12 -3 67 -13
120 -22 85 -15 97 -20 100 -39 4 -27 56 -36 74 -11 8 11 20 14 39 9 19 -5 23
-10 16 -17 -15 -15 -14 -50 1 -65 7 -7 22 -12 34 -12 17 0 21 -5 17 -19 -6
-25 12 -58 38 -66 14 -5 18 -12 14 -23 -5 -13 -2 -13 14 2 12 11 27 16 37 12
14 -5 15 -4 4 9 -7 8 -10 25 -6 40 10 39 -9 65 -48 65 -30 0 -33 2 -28 26 4
24 8 25 41 19 39 -6 211 -54 224 -62 5 -3 -1 -12 -12 -20 -23 -16 -28 -52 -9
-71 33 -33 96 6 84 52 l-6 25 82 -30 c237 -87 389 -186 492 -321 26 -34 27
-39 12 -53 -18 -18 -22 -55 -6 -55 6 0 10 -8 10 -19 0 -48 -235 -231 -297
-231 -18 0 -36 -6 -40 -14 -4 -7 -17 -18 -29 -24 -25 -13 -571 -202 -584 -202
-5 0 -10 10 -12 22 -2 12 -10 23 -18 25 -12 4 -12 3 -2 -5 19 -13 11 -46 -11
-50 -22 -4 -34 25 -19 49 9 15 9 17 -2 13 -21 -8 -26 -42 -10 -59 8 -7 11 -16
7 -18 -10 -5 -392 -131 -873 -287 -478 -155 -479 -155 -765 -241 -530 -158
-659 -243 -544 -358 28 -28 37 -31 93 -31 52 0 79 7 171 48 216 96 494 193
595 208 25 4 64 19 87 35 45 30 124 56 708 240 209 65 485 156 613 200 213 74
234 80 245 65 17 -23 47 -10 47 18 0 20 21 31 203 96 111 40 226 84 256 97 29
12 55 23 57 23 2 0 4 -12 4 -26 0 -77 88 -105 152 -47 11 10 18 31 18 55 0 26
4 38 14 38 25 0 29 33 6 52 l-21 17 21 11 c29 15 50 6 83 -34 24 -31 26 -38
15 -62 -11 -23 -10 -28 10 -44 39 -32 93 -2 84 46 -3 15 3 27 17 36 12 7 21
19 21 26 0 10 6 12 18 7 38 -16 53 -17 67 -5 12 10 16 8 25 -15 12 -31 6 -45
-20 -45 -10 0 -27 -12 -38 -27 -15 -22 -17 -34 -9 -56 6 -20 6 -32 -2 -40 -6
-6 -11 -20 -11 -30 0 -15 -5 -18 -21 -14 -16 4 -18 3 -9 -8 15 -18 3 -43 -23
-48 -18 -3 -17 -5 6 -6 35 -1 34 -13 -5 -46 l-32 -27 -13 26 c-8 14 -18 26
-23 26 -6 0 -5 9 2 20 7 11 18 18 24 16 7 -3 10 3 7 15 -3 10 -9 19 -14 19 -5
0 -9 6 -9 14 0 15 -30 29 -69 35 -5 0 -11 11 -13 24 -4 31 -53 37 -63 7 -4
-13 -1 -28 8 -38 10 -11 13 -27 10 -45 -6 -33 19 -67 51 -67 15 0 17 -3 8 -12
-21 -21 -14 -56 14 -71 l26 -14 -72 -61 c-39 -34 -75 -62 -80 -62 -5 0 -21
-11 -35 -24 -22 -21 -30 -23 -50 -14 -43 20 -38 80 8 97 18 7 28 2 50 -22 15
-17 27 -25 27 -18 0 6 -11 22 -24 34 l-24 23 24 21 c14 13 24 33 24 48 0 37
-50 85 -89 85 -26 0 -31 4 -31 23 0 40 -57 76 -75 47 -10 -16 -22 -12 -28 10
-7 27 -51 26 -71 -2 -21 -29 -4 -58 34 -58 15 0 31 6 34 13 3 9 8 8 18 -4 7
-9 24 -19 36 -23 21 -7 22 -10 9 -24 -44 -50 -15 -141 46 -142 21 0 22 -8 0
-32 -22 -24 -8 -67 27 -85 l24 -12 -40 -36 c-21 -21 -50 -44 -64 -53 -14 -9
-29 -22 -33 -29 -4 -7 -14 -13 -21 -13 -8 0 -21 -11 -29 -24 -9 -13 -50 -52
-92 -86 -61 -51 -75 -68 -75 -91 0 -26 -3 -29 -35 -29 -30 0 -35 3 -35 24 0
33 -23 50 -49 36 -31 -16 -28 -58 4 -66 24 -6 35 -24 15 -24 -5 0 -10 -16 -10
-35 0 -28 -4 -35 -19 -35 -23 0 -51 -25 -51 -45 0 -8 9 -19 20 -25 24 -13 60
3 60 25 0 11 -5 10 -21 -6 -16 -16 -23 -18 -34 -9 -24 20 10 61 36 44 5 -3 9
0 9 5 0 6 5 11 11 11 5 0 8 -4 4 -9 -3 -6 10 -13 29 -16 34 -7 76 7 76 26 0 5
11 2 25 -7 34 -22 62 -13 127 40 48 39 56 42 65 27 8 -13 5 -23 -13 -44 -26
-30 -30 -57 -14 -87 8 -16 5 -18 -28 -23 -27 -3 -42 1 -55 14 -24 26 -54 24
-68 -3 -7 -13 -12 -25 -12 -28 2 -12 -5 -9 -17 5 -7 8 -16 15 -21 15 -5 0 0
-9 11 -20 23 -23 19 -36 -14 -51 -20 -9 -20 -9 2 -5 17 3 25 -2 32 -20 11 -28
24 -33 15 -5 -6 19 7 33 33 37 22 4 27 -28 7 -42 -10 -8 -14 -14 -8 -14 19 0
35 28 28 50 -3 11 -2 20 3 20 16 0 45 -39 39 -54 -5 -13 -2 -13 17 -5 18 8 30
8 47 -2 21 -12 -6 -14 -204 -17 -243 -3 -267 1 -267 43 0 20 5 25 25 25 31 0
43 -24 24 -47 -12 -14 -12 -16 1 -11 9 3 15 17 15 34 0 27 -3 29 -35 29 -29 0
-36 -4 -38 -23 -2 -13 2 -30 8 -38 11 -12 -44 -14 -419 -14 -365 0 -431 2
-431 14 0 8 6 17 13 19 9 4 9 6 -1 6 -8 1 -16 -8 -19 -19 -5 -20 -14 -20
-1434 -20 l-1429 0 0 -25 0 -25 4740 0 4740 0 0 25 0 25 -1842 1 c-1050 0
-1834 4 -1822 9 12 5 25 13 29 19 10 17 43 13 54 -6 6 -10 11 -13 11 -8 0 18
-23 35 -48 35 -13 0 -21 4 -18 8 3 5 -4 23 -14 40 -20 32 -56 48 -88 40 -15
-4 -17 0 -14 23 3 23 -1 31 -23 41 -20 9 -31 9 -45 0 -18 -11 -19 -9 -14 17 7
32 -3 42 -44 43 -24 1 -28 5 -24 23 6 36 -16 68 -44 62 -18 -3 -24 0 -24 15 0
10 -11 23 -24 29 -16 8 -23 19 -23 37 0 36 -28 52 -89 52 l-52 0 5 39 c3 21 1
41 -4 44 -5 3 -8 -7 -5 -24 2 -16 -1 -36 -8 -44 -13 -15 -75 -21 -83 -7 -12
20 -16 62 -7 62 5 0 10 -15 11 -32 l1 -33 8 34 c8 34 23 50 50 52 9 0 11 2 3
5 -7 3 -21 0 -32 -6 -14 -7 -21 -7 -21 0 0 5 5 10 10 10 6 0 10 14 10 30 0 18
5 30 13 30 35 0 63 67 41 99 -9 12 -11 22 -4 26 5 3 10 17 10 31 0 20 5 24 29
24 35 0 63 33 55 64 -3 16 3 25 26 38 21 12 30 25 30 41 0 14 13 39 30 57 23
25 28 37 23 60 -4 22 -1 31 12 36 23 9 36 -15 23 -40 l-11 -21 20 20 c11 11
17 25 13 30 -4 6 -10 19 -14 30 -5 18 -2 21 26 20 26 0 34 -5 39 -25 4 -14 7
-18 8 -9 1 11 13 19 35 23 19 4 37 13 40 21 3 8 17 15 32 15 25 0 26 -2 19
-42 -4 -24 -28 -126 -53 -228 -40 -165 -45 -201 -49 -333 -4 -108 -2 -151 7
-162 19 -23 220 -21 291 4 165 56 289 140 794 531 264 205 414 313 690 497
149 100 304 207 346 239 42 33 112 86 155 120 103 80 220 153 353 219 117 59
261 118 268 111 6 -5 -18 -51 -203 -397 -361 -676 -565 -1116 -609 -1311 -15
-69 -15 -79 -1 -106 18 -34 69 -69 115 -78 30 -6 32 -5 57 52 34 78 99 187
133 227 17 19 33 53 40 85 16 76 72 221 156 404 96 207 186 368 363 648 161
253 419 681 442 734 30 64 -1 125 -83 168 l-39 19 -206 -112 c-114 -62 -292
-162 -397 -222 -591 -342 -1424 -908 -1930 -1312 -128 -103 -263 -193 -357
-241 -37 -19 -69 -34 -72 -34 -2 0 -11 11 -19 24 -14 20 -15 35 -6 88 24 153
102 533 110 536 5 2 17 11 26 20 9 9 23 17 31 18 18 3 62 48 62 64 0 11 13 13
23 3 4 -3 1 -13 -6 -21 -6 -9 7 -3 31 12 23 15 48 24 55 20 7 -4 5 1 -4 12
-23 27 -44 68 -30 60 6 -4 23 2 37 13 31 24 52 26 77 7 26 -20 19 -67 -13 -83
-17 -9 -20 -13 -8 -13 20 0 48 26 48 46 0 8 7 14 16 14 13 0 13 2 -2 17 -11
11 -13 18 -5 21 6 2 11 8 11 14 0 7 -4 7 -12 0 -7 -5 -21 -7 -31 -3 -18 7 -18
8 0 30 18 22 21 23 34 7 8 -9 23 -26 33 -36 16 -17 17 -22 6 -37 -13 -17 -13
-17 5 -1 18 16 30 62 14 53 -12 -8 -39 6 -39 21 0 8 -6 14 -12 14 -7 1 1 7 17
14 33 15 55 5 55 -24 0 -10 7 -23 15 -30 9 -8 15 -9 15 -2 0 6 -4 13 -9 17
-14 8 -9 45 6 45 7 0 13 5 13 10 0 6 -10 8 -24 4 -49 -12 -90 44 -53 74 15 12
58 6 68 -10 4 -6 12 -7 18 -4 6 4 11 2 11 -3 0 -6 -4 -11 -10 -11 -5 0 -10 -7
-10 -15 0 -10 8 -6 25 10 26 27 51 32 57 13 3 -7 7 -4 12 7 4 11 4 16 0 12
-12 -12 -36 32 -29 53 4 13 2 20 -6 20 -7 0 -9 3 -6 6 11 11 -33 64 -54 64
-14 0 -19 7 -19 25 0 38 27 43 58 11 18 -18 21 -25 10 -20 -11 4 -18 1 -18 -6
0 -8 13 -10 45 -7 39 5 47 3 65 -20 28 -35 26 -40 -16 -35 -25 3 -32 7 -23 13
12 7 12 9 0 9 -11 0 -9 4 5 15 10 8 14 15 8 15 -14 0 -30 -19 -38 -47 -7 -21
-5 -22 23 -17 33 7 61 -8 61 -32 0 -8 -13 -26 -30 -41 -16 -14 -30 -34 -30
-44 0 -24 -29 -38 -63 -32 -16 3 -27 1 -27 -6 0 -6 16 -11 35 -11 37 0 79 34
71 57 -5 13 6 17 33 14 7 -2 10 3 6 9 -4 6 -2 17 4 24 16 19 10 88 -9 116 -16
24 -16 26 1 44 39 40 10 125 -38 113 -15 -4 -14 -5 4 -6 66 -3 47 -121 -19
-121 -65 0 -79 101 -18 123 12 4 12 6 -2 6 -11 1 -15 6 -11 16 7 21 -25 55
-52 55 -12 0 -30 -9 -39 -19 -15 -16 -22 -18 -42 -9 -29 13 -70 -4 -80 -34 -3
-12 -15 -18 -32 -18 -36 0 -72 -26 -72 -51 0 -12 -7 -19 -19 -19 -18 0 -18 3
5 68 31 87 30 111 -5 160 -28 38 -33 40 -87 44 -67 4 -49 15 -249 -157 -237
-203 -232 -199 -250 -181 -20 20 -32 21 -15 1 16 -19 5 -46 -27 -69 -25 -19
-26 -19 -39 -1 -34 46 4 95 67 87 4 -1 14 7 24 18 13 15 14 22 5 40 -10 18 -8
26 9 44 12 12 21 34 21 48 0 21 6 28 30 33 32 7 45 32 35 68 -6 18 -5 20 6 10
7 -7 21 -13 31 -13 20 0 43 36 28 45 -5 3 -7 12 -4 20 4 10 0 13 -16 10 -15
-3 -20 0 -17 10 6 13 -21 30 -31 20 -3 -3 0 -5 6 -5 15 0 16 -57 1 -66 -19
-12 -71 -15 -64 -4 3 6 1 10 -4 10 -6 0 -11 -5 -11 -12 0 -6 -2 -9 -5 -7 -2 3
0 22 6 42 7 26 17 39 34 43 16 4 25 13 25 25 0 10 6 19 14 19 8 0 17 6 19 13
3 7 6 5 6 -5 1 -10 6 -18 11 -18 6 0 10 -5 10 -11 0 -5 -4 -7 -10 -4 -5 3 -10
1 -10 -5 0 -6 6 -10 13 -9 25 3 36 -2 40 -18 4 -13 5 -12 6 5 0 12 9 25 19 29
31 11 52 35 58 69 4 23 12 34 24 34 25 0 40 22 33 48 -4 16 -1 22 11 22 19 0
32 46 17 63 -8 10 -7 19 4 33 20 27 18 61 -5 84 -19 19 -19 22 -5 44 19 28 7
69 -25 86 -13 7 -20 21 -20 40 0 36 -40 70 -83 70 -17 0 -36 8 -43 18 -12 15
-13 15 -7 -5 7 -28 -18 -40 -53 -25 -29 14 -31 32 -4 39 23 6 27 23 5 23 -8 0
-15 7 -15 16 0 8 -5 12 -10 9 -7 -4 -9 2 -4 19 7 29 -19 47 -39 27 -19 -19
-29 -12 -13 11 20 28 4 58 -30 58 -17 0 -28 7 -31 20 -6 21 -36 35 -53 25 -6
-3 -10 4 -10 17 0 29 -17 48 -43 48 -14 0 -17 4 -12 18 4 9 9 35 12 58 6 45
-13 74 -48 74 -10 0 -19 5 -19 11 0 6 -7 9 -15 5 -10 -4 -15 1 -15 15 0 11 -4
17 -10 14 -5 -3 -10 -1 -10 4 0 13 2 14 36 1 24 -10 26 -9 13 6 -7 9 -13 26
-14 38 0 11 -9 25 -20 30 -17 7 -20 18 -20 85 0 50 5 81 13 90 8 9 12 25 8 42
-4 22 0 32 21 48 14 12 30 18 35 15 5 -3 20 2 34 11 20 13 28 14 40 5 8 -7 25
-9 40 -6 15 4 32 2 40 -5 10 -8 14 -8 14 0 0 6 -5 11 -11 11 -21 0 -4 45 18
48 17 3 25 -5 37 -32 16 -39 45 -47 79 -22 14 11 24 11 48 2 28 -10 33 -9 50
13 21 26 25 61 7 79 -9 9 -7 16 6 31 11 12 14 21 7 26 -6 3 -11 -1 -11 -9 0
-24 -22 -31 -36 -11 -16 22 -1 47 22 38 8 -3 14 -2 12 3 -1 5 4 19 11 32 11
20 10 26 -4 42 -10 11 -14 24 -9 31 5 8 3 10 -6 4 -8 -5 -26 -9 -40 -10 -23
-1 -26 2 -22 23 7 35 42 45 65 19 l18 -22 -11 23 c-11 22 -10 23 12 20 15 -2
22 -9 21 -22 -1 -13 2 -15 10 -7 7 7 7 14 -2 25 -7 8 -9 25 -5 40 6 25 -4 39
-60 84 -15 12 -15 15 -1 29 9 8 14 21 11 29 -3 7 -8 28 -11 47 -6 30 -4 36 14
42 27 8 61 -11 61 -34 0 -20 -25 -36 -49 -32 -7 1 -10 -2 -6 -8 3 -6 17 -11
30 -11 42 0 46 82 4 95 -15 5 -19 13 -15 29 3 13 -1 31 -9 42 -8 10 -15 14
-15 9 0 -6 5 -16 10 -21 17 -17 0 -45 -24 -42 -17 2 -22 11 -24 43 -2 27 0 36
7 26 7 -11 14 -9 37 12 25 23 26 29 16 52 -7 14 -20 28 -29 31 -70 23 -74 26
-58 44 8 9 12 20 8 24 -5 4 -3 7 2 6 29 -6 56 2 66 21 9 18 7 25 -12 43 l-23
21 18 -22 c15 -19 16 -25 6 -38 -7 -8 -23 -15 -35 -15 -31 0 -39 36 -15 60 27
27 40 54 32 67 -12 19 -90 33 -102 18 -5 -6 -6 -16 -2 -20 4 -5 1 -5 -6 -1 -7
4 -10 11 -7 16 3 4 -1 10 -9 13 -17 7 -15 -8 6 -51 9 -18 13 -30 8 -27 -5 3
-12 1 -15 -5 -11 -17 -66 -7 -92 16 -14 13 -32 20 -43 17 -32 -8 -70 23 -70
57 0 34 22 49 64 44 40 -4 47 -15 37 -52 -6 -19 -6 -34 0 -37 5 -4 9 -1 9 5 0
6 4 9 8 6 5 -3 21 -2 37 2 31 9 41 40 18 61 -11 10 -13 8 -8 -12 5 -20 2 -28
-15 -37 -18 -9 -24 -9 -30 0 -11 18 0 50 18 50 17 0 11 10 -10 14 -64 15 -78
20 -83 34 -4 10 1 22 11 29 16 12 17 13 1 13 -9 0 -17 5 -17 11 0 21 -34 38
-76 39 -31 0 -48 -6 -67 -25 -27 -28 -43 -90 -20 -81 16 6 28 -34 19 -67 -3
-13 -17 -30 -31 -37 -38 -21 -60 -3 -60 48 0 22 2 39 5 37 3 -1 14 1 25 6 16
6 17 8 3 8 -9 1 -18 11 -20 24 -2 15 -14 25 -38 33 -32 11 -33 12 -10 15 19 3
26 11 28 33 5 42 -26 58 -60 32z m-170 -285 c14 -8 38 -10 60 -6 34 5 37 4 38
-20 2 -19 -3 -25 -20 -25 -32 0 -68 -28 -61 -49 4 -12 -3 -21 -20 -29 -22 -10
-26 -18 -23 -45 3 -31 5 -32 43 -30 22 1 60 5 85 10 37 7 46 12 48 32 5 30
-12 41 -64 41 -56 0 -75 22 -40 45 31 20 56 14 56 -15 0 -11 5 -20 10 -20 13
0 13 33 0 46 -6 6 4 8 30 6 30 -3 40 -9 40 -21 0 -10 9 -27 20 -39 24 -25 25
-38 6 -45 -17 -7 -31 -62 -19 -79 5 -9 10 1 13 27 5 40 6 40 75 62 38 13 71
27 73 33 2 5 8 10 14 10 6 0 6 -6 -2 -15 -17 -20 -3 -54 26 -61 14 -4 24 -13
24 -25 0 -10 8 -24 19 -31 15 -10 17 -21 12 -48 -5 -29 -11 -35 -31 -37 -21
-1 -26 4 -28 25 -3 33 -24 55 -54 57 -20 1 -23 7 -23 40 0 23 -5 40 -13 43
-11 3 -12 0 -4 -15 8 -14 7 -27 -4 -47 -12 -25 -12 -27 2 -22 8 3 12 2 9 -4
-3 -6 -22 -8 -41 -6 -19 3 -32 1 -29 -5 4 -5 -7 -6 -25 -2 -18 3 -41 0 -56 -7
-19 -11 -27 -11 -36 -2 -21 21 -69 15 -75 -9 -4 -15 -11 -19 -27 -15 -11 3
-33 6 -48 6 -21 0 -28 5 -28 20 0 11 -7 23 -15 26 -8 4 -15 12 -15 19 0 7 7
15 15 19 20 7 19 55 0 76 -13 14 -14 22 -4 44 8 17 9 33 3 47 -8 17 -4 27 16
49 19 22 27 26 35 16 6 -7 20 -18 33 -25z m617 -141 c25 0 39 -23 30 -51 -8
-24 -51 -25 -64 -2 -5 10 -13 15 -17 11 -4 -4 -2 -14 4 -21 15 -17 6 -27 -25
-27 -12 0 -23 -4 -23 -9 0 -15 27 -20 41 -8 11 10 11 9 1 -4 -6 -8 -9 -24 -6
-36 6 -23 -12 -66 -25 -59 -4 3 -23 6 -42 7 -29 2 -35 7 -37 27 -3 33 15 62
39 62 11 0 17 5 14 10 -3 6 -1 10 5 10 7 0 9 7 6 15 -3 10 1 18 12 22 29 10
52 35 53 57 0 12 3 15 6 9 2 -7 15 -13 28 -13z m-390 -156 c14 -15 22 -30 19
-35 -3 -5 2 -12 11 -15 10 -4 14 -13 10 -28 -5 -15 -4 -17 3 -7 7 10 21 12 46
8 29 -5 36 -2 41 14 7 20 25 27 25 9 0 -5 -5 -10 -11 -10 -5 0 -7 -4 -4 -10 3
-5 2 -10 -3 -10 -5 0 -9 -11 -9 -25 0 -43 -18 -53 -93 -53 -52 0 -70 4 -75 16
-6 17 11 42 31 42 7 0 16 5 20 12 5 7 2 9 -7 4 -8 -4 -5 0 5 8 27 22 13 31
-18 11 -26 -17 -64 -13 -78 9 -17 24 -8 67 15 76 35 14 46 12 72 -16z m415 5
c-8 -6 -11 -12 -5 -15 32 -14 37 -23 30 -53 -4 -17 -11 -31 -15 -31 -5 0 -8
-6 -6 -12 1 -7 1 -10 -1 -5 -3 4 -14 7 -24 7 -11 0 -31 11 -44 25 -13 15 -26
22 -29 16 -3 -5 -1 -11 4 -13 20 -6 17 -43 -3 -60 -29 -26 -56 -22 -67 8 -13
32 3 64 32 64 12 0 36 11 54 25 18 14 37 25 42 25 6 0 12 7 16 15 3 8 11 15
18 15 9 0 9 -3 -2 -11z m-596 -34 c7 -19 30 -19 49 0 13 12 15 10 21 -16 4
-21 14 -33 34 -40 25 -9 29 -15 28 -46 -1 -31 3 -38 24 -43 17 -4 21 -8 12
-14 -6 -4 -12 -21 -12 -37 0 -26 6 -33 40 -47 22 -9 40 -23 40 -29 0 -8 13
-13 34 -13 25 0 35 -5 39 -19 3 -15 -1 -21 -17 -23 -15 -2 -24 -14 -31 -43 -9
-38 -12 -40 -48 -40 -29 0 -36 3 -31 15 4 8 7 26 6 40 0 28 16 53 29 44 13 -8
11 -42 -3 -47 -8 -3 -6 -6 5 -6 10 -1 17 6 17 18 0 48 -25 66 -50 36 -19 -23
-40 -18 -40 9 0 13 -7 29 -15 36 -9 8 -13 21 -9 35 4 17 0 27 -15 37 -17 10
-19 19 -14 51 7 47 -23 86 -63 81 -38 -4 -42 -14 -6 -14 44 0 71 -40 52 -75
-7 -14 -20 -25 -29 -26 -9 0 -28 -2 -44 -4 -15 -2 -25 0 -22 6 4 5 1 9 -4 9
-14 0 -14 57 -1 65 12 7 13 25 2 25 -4 0 -16 -17 -27 -37 -11 -21 -24 -41 -29
-45 -15 -10 -36 3 -36 23 0 25 33 42 50 26 10 -10 12 -8 6 8 -4 11 -4 16 0 12
13 -12 33 27 34 66 0 37 13 50 24 22z m-293 -55 c16 0 38 -45 33 -67 -7 -25
-54 -48 -82 -39 -15 5 -21 -1 -31 -34 -13 -44 -41 -66 -59 -48 -16 16 -15 59
2 80 11 15 15 16 34 2 20 -14 21 -13 18 36 -2 27 0 48 3 45 4 -2 15 5 25 16
10 12 24 18 32 15 9 -3 20 -6 25 -6z m791 -89 c-7 -4 -10 -15 -6 -24 3 -9 10
-14 15 -11 5 3 9 -4 9 -15 0 -11 5 -23 10 -26 20 -12 92 -8 101 6 5 8 9 9 9 3
0 -10 17 -19 57 -29 6 -2 14 6 16 17 7 24 45 21 61 -4 8 -14 7 -22 -7 -35 -16
-16 -19 -16 -45 -1 -28 17 -28 17 -47 -18 -10 -19 -26 -34 -36 -34 -27 0 -51
30 -45 55 4 14 1 22 -8 22 -8 0 -11 -8 -9 -18 8 -28 -38 -42 -74 -24 -15 8
-23 15 -17 15 17 0 34 45 23 61 -7 11 -9 9 -9 -8 0 -13 -5 -23 -11 -23 -5 0
-7 -4 -4 -10 4 -6 -12 -10 -39 -10 -33 0 -52 6 -66 20 -48 48 -5 107 70 97 22
-3 43 -1 46 5 3 5 9 7 12 3 4 -3 1 -10 -6 -14z m-449 -98 c-3 -72 -3 -72 -39
-66 -36 6 -84 -3 -84 -15 0 -5 21 -8 47 -8 43 1 48 -2 57 -26 22 -61 -37 -101
-92 -62 -21 14 -22 21 -17 80 3 40 2 64 -5 64 -5 0 -10 5 -10 11 0 6 8 8 20 4
29 -9 60 12 60 40 0 22 5 25 33 25 32 0 32 0 30 -47z m435 -44 c10 0 13 -2 7
-5 -13 -5 -10 -103 4 -117 18 -18 13 -55 -11 -72 -22 -15 -24 -14 -45 10 l-23
26 0 -25 c0 -19 5 -26 20 -26 12 0 20 -7 20 -16 0 -8 7 -22 15 -30 13 -14 15
-13 15 8 0 13 6 32 13 41 11 15 15 16 31 4 14 -10 17 -21 13 -39 -8 -32 -60
-44 -85 -19 -10 10 -17 12 -19 4 -2 -6 -14 -8 -26 -5 -12 3 -19 2 -15 -3 4 -4
22 -10 40 -14 24 -5 33 -12 33 -26 0 -28 -37 -26 -50 3 -5 12 -12 22 -15 22
-3 0 -10 -10 -15 -22 -12 -28 -62 -37 -71 -14 -9 23 16 48 42 43 13 -2 22 -1
21 2 -1 3 4 15 10 26 6 11 10 34 9 50 -2 37 29 85 55 85 10 0 19 5 19 10 0 6
-14 10 -31 10 -36 0 -59 24 -51 53 6 22 65 62 70 47 2 -6 11 -10 20 -11z
m-428 -49 c0 -5 11 -12 25 -16 31 -8 34 -48 5 -64 -24 -13 -27 -55 -4 -64 9
-3 20 -4 25 0 5 3 8 -5 6 -18 -1 -15 -12 -27 -32 -34 -16 -6 -35 -21 -42 -34
-13 -27 -69 -40 -59 -14 3 9 6 22 6 30 0 8 8 14 19 14 25 0 44 25 36 49 -6 20
-35 37 -35 21 0 -6 5 -10 11 -10 6 0 9 -10 7 -22 -2 -17 -10 -23 -27 -23 -31
0 -37 18 -14 41 16 16 16 17 1 12 -9 -4 -19 -2 -22 5 -2 7 -5 -4 -6 -23 -1
-19 -4 -29 -7 -22 -2 6 -16 12 -29 12 -17 0 -24 6 -24 19 0 28 23 43 52 32 35
-13 77 -2 95 25 15 23 14 37 -2 77 -4 10 -3 17 4 17 6 0 11 -4 11 -10z m500
-123 c0 -18 2 -18 25 7 43 46 87 29 110 -43 5 -16 4 -21 -4 -17 -6 4 -11 3
-11 -2 0 -5 -11 -14 -24 -21 -19 -10 -28 -11 -46 -1 -20 11 -22 10 -17 -4 4
-10 3 -15 -2 -12 -5 3 -12 -1 -15 -9 -5 -13 -2 -14 15 -5 41 23 79 -16 47 -48
-27 -27 -67 -5 -71 37 -1 12 -5 21 -9 21 -4 0 -8 5 -8 11 0 6 7 8 16 5 24 -9
7 35 -23 61 -16 13 -24 27 -20 37 9 22 37 9 37 -17z m-516 -161 c-3 -52 -4
-54 -30 -51 -30 3 -46 22 -38 48 3 9 1 17 -5 17 -20 0 -12 -59 9 -70 15 -8 18
-15 11 -28 -10 -20 -3 -43 18 -58 13 -10 13 -14 2 -28 -7 -9 -20 -16 -28 -16
-20 0 -29 30 -12 42 12 8 11 9 -1 5 -8 -2 -15 -13 -14 -23 0 -14 -7 -19 -28
-20 -21 -1 -28 4 -28 17 0 10 -12 25 -27 33 -16 8 -22 15 -15 16 7 0 17 11 23
24 9 19 7 29 -6 50 -16 24 -16 26 -1 26 9 0 19 6 22 14 3 8 12 12 19 10 8 -3
21 -2 30 3 9 5 35 8 58 7 31 -1 42 -6 41 -18z m54 -31 c-6 -14 -18 -25 -27
-26 -11 0 -12 -2 -3 -6 7 -3 19 1 28 8 12 10 20 7 42 -14 16 -15 33 -27 39
-27 6 0 16 -7 23 -15 18 -22 28 -18 23 8 -6 34 10 51 42 43 20 -5 26 -12 23
-28 -3 -21 -13 -30 -58 -49 -14 -5 -37 -17 -52 -25 -51 -28 -89 16 -51 58 9
10 12 18 6 18 -18 0 -48 -42 -45 -61 3 -15 -3 -19 -22 -19 -19 0 -26 5 -26 20
0 11 6 20 14 20 14 0 11 46 -5 55 -4 3 -3 19 3 35 7 22 16 30 34 30 22 0 23
-2 12 -25z m-216 -132 c11 -23 21 -29 58 -33 37 -4 46 -9 54 -32 8 -22 5 -33
-14 -61 -21 -31 -26 -34 -51 -25 -30 10 -46 51 -34 89 8 25 -13 43 -32 28 -19
-16 -67 -7 -71 14 -10 50 68 67 90 20z m258 -23 c18 -9 25 -10 28 -1 2 6 8 11
13 11 6 0 7 -4 4 -10 -3 -5 -1 -10 4 -10 19 0 12 -39 -10 -50 -32 -17 -51 -5
-43 26 5 19 4 25 -5 20 -6 -4 -11 -14 -11 -22 0 -8 -4 -13 -8 -10 -5 3 -7 -8
-4 -23 5 -33 -13 -71 -32 -71 -16 0 -37 -45 -30 -65 4 -8 1 -15 -5 -15 -20 0
-30 -35 -17 -61 11 -22 9 -26 -16 -41 -22 -14 -28 -25 -28 -52 0 -19 4 -37 8
-40 17 -10 0 -74 -21 -84 -16 -8 -18 -11 -6 -11 22 -1 41 23 43 53 1 18 4 22
13 14 7 -6 24 -7 38 -4 22 6 25 3 25 -22 0 -21 -7 -30 -30 -39 -20 -7 -31 -20
-35 -39 -12 -51 -14 -54 -45 -54 -20 0 -30 -5 -30 -16 0 -8 -4 -13 -9 -10 -4
3 -6 16 -4 29 7 34 -28 59 -84 62 -37 1 -49 5 -51 19 -3 12 0 16 8 11 8 -5 9
3 5 29 -6 32 -5 36 19 42 36 9 52 0 58 -30 3 -14 2 -23 -2 -21 -5 3 -10 -1
-13 -9 -3 -8 -14 -16 -24 -19 -10 -2 -7 -2 7 0 14 3 41 5 60 5 19 0 29 2 22 5
-23 9 -35 43 -20 60 11 14 10 16 -9 11 -14 -4 -23 -2 -23 5 0 15 17 42 27 43
23 2 43 18 43 34 0 21 -29 35 -44 20 -7 -7 -3 -10 12 -10 25 0 30 -18 7 -27
-21 -7 -28 1 -27 34 0 15 -7 36 -15 45 -22 25 -7 40 33 32 21 -4 34 -2 34 4 0
6 -9 8 -20 5 -14 -4 -20 0 -20 11 0 21 29 33 40 17 10 -17 61 -10 70 9 4 8 12
25 18 37 16 30 15 33 -7 33 -21 0 -29 20 -23 62 3 18 14 32 36 42 17 9 25 16
18 16 -7 0 -22 -5 -33 -10 -15 -9 -21 -7 -25 5 -4 8 -1 21 4 28 14 16 99 14
132 -3z m-47 -233 c4 3 7 -3 7 -14 0 -23 8 -23 54 -4 36 14 57 11 75 -12 10
-14 11 -25 3 -42 -8 -18 -8 -25 3 -28 12 -5 20 15 27 69 1 6 6 11 12 11 6 0
22 1 36 2 20 1 22 3 10 11 -20 13 -10 12 28 -1 17 -6 34 -19 37 -30 9 -26 -3
-76 -22 -94 -19 -19 -67 -19 -83 0 -7 8 -20 15 -28 15 -12 0 -13 -3 -4 -12 9
-9 8 -16 -4 -30 -19 -20 -29 -78 -14 -78 14 0 12 -44 -2 -58 -7 -7 -27 -12
-45 -12 -37 0 -45 -17 -10 -22 14 -2 23 -11 25 -25 4 -28 -34 -40 -79 -24 -17
6 -35 8 -40 5 -19 -11 -49 17 -49 46 0 52 60 68 84 22 13 -26 13 -31 -2 -45
-15 -15 -15 -17 0 -17 18 0 29 21 35 70 5 41 19 60 45 60 10 0 17 4 13 10 -3
5 -13 6 -22 3 -9 -3 -21 0 -27 8 -6 9 -19 18 -29 22 -13 5 -16 13 -11 32 4 15
2 25 -5 25 -6 0 -11 -9 -11 -20 0 -40 -81 -56 -100 -19 -16 29 -5 66 23 75 33
11 70 4 84 -16 20 -29 61 -34 96 -11 22 14 27 21 15 21 -10 0 -18 -4 -18 -10
0 -16 -57 -11 -75 7 -9 9 -15 26 -12 39 3 17 0 21 -12 17 -9 -4 -21 -10 -26
-14 -6 -4 -18 -1 -29 6 -13 10 -17 21 -12 40 4 14 11 23 16 20 6 -3 10 -1 10
6 0 8 3 9 13 0 8 -6 17 -8 20 -4z m-503 -47 c-12 -8 -11 -10 8 -10 12 0 25 -7
28 -15 8 -21 -24 -68 -41 -61 -8 3 -17 1 -20 -4 -3 -5 -11 -7 -19 -4 -20 8
-66 -14 -66 -31 0 -19 -48 -31 -69 -18 -41 26 -5 99 42 88 18 -5 26 -1 33 16
7 14 20 23 37 23 31 2 31 2 16 -26 -9 -16 -7 -24 5 -36 10 -10 16 -12 16 -5 0
7 -5 15 -11 18 -7 5 -5 15 6 31 8 13 12 24 8 24 -12 0 20 20 32 20 6 0 3 -5
-5 -10z m296 -84 c7 -19 -14 -58 -27 -51 -5 4 -25 1 -45 -5 -25 -9 -34 -16
-30 -27 5 -12 -1 -14 -32 -10 -42 4 -62 -13 -62 -53 0 -14 -7 -20 -24 -20 -13
0 -29 -7 -36 -15 -11 -14 -14 -13 -27 5 -8 11 -21 20 -29 20 -18 0 -18 25 1
54 11 16 22 22 38 19 13 -3 29 2 36 11 10 12 17 13 31 3 27 -16 71 2 95 40 15
23 29 33 55 36 19 2 39 4 43 5 4 1 10 -4 13 -12z m-501 -56 c-8 -12 38 -24 68
-17 16 4 27 -1 40 -18 10 -15 13 -26 7 -30 -5 -3 -10 -17 -10 -31 0 -13 -4
-24 -10 -24 -5 0 -10 -8 -10 -17 1 -17 1 -17 11 0 12 21 29 22 29 3 0 -21 -18
-29 -69 -31 -25 0 -54 -5 -63 -9 -13 -6 -18 -4 -18 7 0 8 -5 17 -11 19 -9 3
-9 9 -1 23 6 11 13 28 16 38 8 24 30 22 23 -3 -3 -11 -1 -20 4 -20 13 0 11 34
-3 48 -9 9 -9 12 0 12 7 0 12 8 12 18 -1 16 -2 16 -14 -1 -12 -15 -18 -16 -35
-7 -25 13 -25 14 -5 34 17 17 49 22 39 6z m392 -60 c-1 -3 2 -19 5 -36 6 -27
11 -31 41 -32 19 -1 41 -3 48 -4 16 -3 49 -37 49 -50 0 -17 -48 -57 -76 -64
-60 -15 -108 50 -67 91 13 13 14 20 5 23 -7 2 -10 7 -7 11 3 6 -44 7 -73 2 -2
-1 4 -8 12 -17 19 -18 20 -38 6 -65 -8 -15 -7 -19 5 -19 9 0 15 9 16 23 1 17
3 15 10 -10 11 -37 51 -68 74 -59 9 3 14 2 12 -2 -2 -4 -11 -24 -20 -44 -16
-34 -20 -36 -51 -31 -47 7 -72 -10 -86 -60 -12 -39 -16 -43 -42 -39 -33 5 -35
12 -8 35 31 27 25 66 -14 80 -11 5 -16 13 -12 23 3 9 6 25 6 35 0 14 4 18 13
12 19 -12 40 -13 54 -1 9 8 15 4 23 -16 11 -29 31 -33 54 -10 20 19 20 22 1
41 -11 10 -24 13 -43 8 -26 -7 -76 -9 -107 -4 -11 2 -13 9 -9 23 15 50 31 72
67 90 25 12 43 29 49 47 8 24 15 29 38 27 16 -1 28 -5 27 -8z m-228 -22 c6
-17 4 -25 -8 -30 -9 -5 -2 -5 15 -2 38 6 43 -4 35 -66 -4 -30 -11 -45 -21 -46
-8 -1 -21 -2 -27 -3 -7 0 -13 -5 -13 -9 0 -5 13 -7 29 -4 23 3 30 -1 36 -17
12 -40 -34 -68 -63 -39 -7 7 -12 28 -12 48 0 20 -6 45 -14 56 -13 17 -12 21 1
37 14 15 14 21 3 42 -11 20 -11 27 0 40 17 21 29 19 39 -7z m478 -128 c5 -21
33 -28 33 -9 0 5 -4 8 -9 5 -5 -3 -11 1 -15 9 -6 16 5 20 18 8 4 -4 21 -8 38
-9 68 -4 75 -58 10 -79 -25 -9 -29 -13 -20 -28 15 -28 2 -49 -29 -45 -20 2
-28 9 -29 23 -1 11 -2 28 -3 37 -1 12 -10 16 -36 15 -19 -1 -35 -5 -35 -9 0
-9 15 -11 44 -8 15 1 17 -3 13 -22 -8 -32 14 -57 51 -60 31 -2 46 -18 18 -18
-8 0 -16 -6 -18 -12 -3 -8 -18 -12 -41 -10 -28 3 -39 -1 -50 -20 -21 -33 -32
-72 -18 -64 17 11 13 -22 -6 -55 -10 -16 -25 -29 -34 -29 -20 0 -49 26 -49 43
1 22 27 47 51 48 16 1 19 3 7 6 -14 4 -15 8 -6 23 9 14 9 22 0 33 -10 12 -7
20 18 45 33 33 38 66 15 96 -34 45 -6 106 47 106 21 0 31 -6 35 -20z m231
-218 c2 -12 10 -34 17 -49 19 -37 9 -55 -26 -48 -21 5 -32 1 -46 -14 -9 -12
-25 -21 -35 -21 -9 0 -20 -5 -24 -11 -5 -8 1 -10 18 -7 21 4 24 1 20 -19 -2
-13 2 -31 9 -41 13 -15 12 -16 -3 -4 -10 8 -27 10 -45 7 -17 -4 -23 -3 -16 2
16 11 11 87 -8 109 -12 14 -14 14 -21 -5 -4 -12 -16 -21 -26 -21 -10 0 -23 -5
-30 -12 -14 -14 -16 -70 -3 -83 6 -6 -6 -10 -35 -11 -39 -1 -44 2 -44 21 0 11
-4 25 -10 31 -6 6 -4 22 8 46 20 42 68 58 90 30 11 -14 12 -14 12 1 0 20 40
39 54 26 5 -4 21 6 37 24 16 18 29 26 29 20 0 -7 -6 -13 -12 -14 -7 0 -2 -6
12 -12 14 -6 28 -16 32 -22 5 -6 8 -5 8 4 0 10 3 11 14 2 11 -10 14 -7 12 12
-1 22 -4 23 -30 16 -16 -5 -32 -6 -35 -4 -2 3 0 5 6 5 6 0 9 9 6 20 -3 11 0
27 7 36 19 22 54 14 58 -14z m504 1 c10 -9 18 -23 18 -31 0 -19 -29 -52 -46
-52 -7 0 -20 -10 -28 -22 -9 -12 -16 -17 -16 -10 0 6 -5 12 -10 12 -6 0 -4
-13 5 -31 13 -24 14 -34 5 -45 -7 -7 -9 -21 -6 -30 6 -14 9 -13 29 7 13 13 29
25 36 27 16 3 53 -27 46 -39 -3 -4 -1 -10 4 -13 5 -3 11 3 14 14 7 26 33 36
52 20 23 -19 18 -38 -15 -55 -17 -9 -30 -11 -30 -5 0 20 -26 9 -42 -17 -10
-16 -18 -22 -18 -15 0 6 -11 12 -25 12 -14 0 -28 7 -31 15 -8 21 -26 7 -22
-17 2 -12 -6 -26 -17 -34 -18 -12 -24 -11 -44 2 -14 10 -21 24 -19 37 2 18 11
23 41 25 43 4 47 27 5 27 -29 1 -54 18 -70 48 -8 16 -7 22 7 30 14 7 15 11 4
17 -7 5 5 6 28 3 43 -6 52 3 59 64 4 40 15 62 32 66 30 8 35 7 54 -10z m3048
-113 c0 -5 6 -10 13 -10 23 0 49 -26 53 -51 2 -13 6 -35 9 -49 3 -14 2 -19 -1
-11 -6 13 -50 -69 -69 -129 -7 -23 -8 -23 -15 -5 -6 17 -8 15 -14 -10 -4 -17
-13 -37 -20 -45 -7 -8 -19 -30 -27 -47 -8 -18 -17 -33 -21 -33 -5 0 -8 -7 -8
-16 0 -8 -4 -12 -10 -9 -5 3 -10 -3 -10 -15 0 -11 -7 -23 -15 -26 -9 -4 -15
-11 -14 -18 1 -6 -2 -22 -7 -35 -7 -23 -8 -24 -15 -5 -6 15 -8 12 -8 -14 -1
-19 -7 -35 -16 -38 -8 -4 -15 -10 -15 -15 0 -6 -9 -20 -20 -31 -11 -12 -19
-26 -17 -32 2 -5 -10 -23 -25 -40 -15 -17 -28 -36 -28 -43 0 -19 -40 -81 -56
-87 -9 -4 -14 -13 -10 -21 3 -8 1 -15 -4 -15 -5 0 -19 -18 -30 -40 -11 -22
-25 -40 -30 -40 -6 0 -10 -8 -10 -17 0 -10 -9 -29 -20 -43 -11 -14 -20 -32
-20 -41 0 -17 -46 -69 -61 -69 -5 0 -9 -7 -9 -16 0 -28 -40 -104 -55 -104 -18
0 -20 -17 -4 -22 8 -3 6 -10 -5 -20 -9 -9 -16 -21 -16 -27 0 -6 -4 -11 -10
-11 -5 0 -7 -7 -4 -15 4 -8 2 -15 -4 -15 -10 0 -57 -99 -54 -113 2 -5 -2 -6
-7 -2 -6 3 -16 -14 -23 -37 -7 -24 -22 -54 -35 -67 -12 -14 -20 -28 -17 -33 7
-11 -28 -98 -38 -98 -5 0 -8 -11 -8 -25 0 -14 -7 -28 -16 -32 -8 -3 -13 -12
-10 -20 3 -7 -3 -37 -14 -66 -11 -29 -20 -62 -20 -74 0 -13 -4 -23 -10 -23 -5
0 -10 -5 -10 -12 0 -7 -15 -27 -32 -46 -24 -24 -28 -31 -13 -26 18 7 18 6 6
-9 -7 -9 -17 -14 -22 -11 -5 3 -6 -1 -4 -9 3 -7 -5 -25 -19 -40 -13 -14 -27
-40 -31 -57 -4 -17 -18 -44 -32 -60 -20 -24 -33 -30 -64 -30 -25 0 -38 4 -34
10 3 6 0 17 -8 25 -11 10 -12 24 -7 52 14 74 40 159 60 201 11 23 23 56 27 72
3 17 9 30 13 30 5 0 19 29 31 64 13 36 28 62 33 59 5 -3 6 -1 2 5 -3 6 5 33
18 59 14 26 73 147 132 268 59 121 114 228 122 238 8 9 12 17 7 17 -4 0 -3 6
3 13 6 6 23 37 39 67 16 30 34 64 40 75 12 23 47 91 76 150 11 22 26 47 33 55
6 8 44 78 84 155 40 77 76 142 79 145 4 3 8 21 10 41 3 46 -8 50 -90 39 -34
-5 -66 -7 -71 -4 -4 3 -5 -2 -1 -12 5 -13 2 -15 -17 -9 -17 5 -21 4 -15 -6 6
-9 2 -11 -13 -7 -12 4 -25 2 -28 -3 -3 -5 -21 -16 -40 -24 -19 -8 -42 -21 -50
-30 -9 -8 -24 -15 -35 -15 -11 0 -18 -4 -15 -8 6 -10 -60 -35 -73 -28 -5 3 -8
-2 -7 -11 0 -10 -8 -19 -18 -21 -21 -4 -34 -14 -71 -52 -18 -18 -25 -20 -25
-10 -1 10 -7 8 -20 -9 -12 -13 -26 -21 -35 -17 -8 3 -15 1 -15 -4 0 -15 -35
-47 -46 -43 -5 2 -19 -4 -29 -12 -20 -15 -20 -15 0 -9 15 4 12 -1 -10 -20 -16
-14 -35 -24 -41 -22 -6 3 -11 -3 -10 -12 0 -9 -5 -16 -12 -14 -7 1 -23 -8 -35
-21 -12 -13 -43 -36 -68 -53 -27 -17 -44 -35 -41 -43 3 -8 0 -11 -6 -7 -6 3
-13 2 -17 -4 -3 -5 -14 -10 -23 -10 -10 0 -23 -9 -30 -20 -7 -11 -19 -20 -28
-20 -8 0 -12 -4 -9 -10 3 -5 1 -10 -6 -10 -7 0 -21 -8 -32 -17 -20 -17 -20
-17 -14 2 5 14 1 12 -14 -7 -15 -20 -30 -28 -51 -28 -26 0 -29 -2 -18 -15 11
-13 10 -14 -4 -9 -10 4 -18 0 -22 -10 -3 -9 -12 -16 -20 -16 -8 0 -14 -7 -14
-15 0 -11 -11 -15 -37 -16 -27 0 -32 -3 -20 -8 16 -6 12 -10 -22 -26 -22 -11
-41 -26 -41 -32 0 -7 -4 -13 -8 -13 -4 0 -14 6 -21 13 -11 10 -12 8 -6 -12 6
-20 4 -23 -9 -18 -10 4 -15 3 -11 -3 4 -6 -7 -13 -24 -16 -17 -4 -31 -13 -31
-20 0 -16 -30 -33 -48 -27 -7 3 -11 -1 -10 -9 2 -7 -5 -12 -14 -12 -10 1 -15
-3 -12 -8 7 -11 -27 -39 -38 -32 -15 10 -31 -8 -17 -18 10 -7 8 -8 -8 -5 -15
3 -20 1 -16 -9 3 -10 -5 -16 -25 -20 -18 -4 -29 -11 -26 -18 3 -7 -12 -22 -33
-33 -21 -12 -52 -33 -68 -47 -17 -14 -36 -26 -43 -26 -7 0 -10 -5 -7 -11 4 -6
-2 -13 -14 -16 -12 -3 -21 -10 -21 -15 0 -6 -7 -8 -15 -4 -8 3 -14 0 -12 -7 1
-6 -9 -13 -22 -15 -19 -3 -21 -6 -10 -13 11 -7 11 -9 -3 -9 -10 0 -18 -5 -18
-10 0 -6 -11 -16 -25 -22 -14 -6 -25 -18 -25 -26 0 -8 -6 -12 -14 -9 -9 4 -33
-11 -58 -34 -24 -23 -56 -47 -73 -55 -16 -7 -26 -13 -21 -14 11 0 -34 -35 -57
-43 -10 -4 -15 -11 -12 -17 3 -5 -3 -10 -14 -10 -12 0 -29 -8 -39 -18 -10 -10
-26 -22 -36 -25 -10 -4 -20 -16 -23 -27 -4 -15 -11 -19 -27 -15 -11 2 -15 2
-8 -1 17 -8 5 -24 -13 -17 -10 3 -15 -1 -15 -12 0 -11 -5 -15 -15 -12 -8 4
-17 2 -20 -3 -4 -6 -15 -10 -26 -10 -11 0 -18 -4 -15 -9 5 -8 -122 -71 -143
-71 -5 0 -11 -5 -13 -12 -3 -7 -39 -12 -106 -14 -56 -2 -106 -6 -112 -9 -5 -3
-10 -2 -10 4 0 6 -7 8 -15 5 -27 -11 -9 339 20 386 5 8 10 29 12 48 2 19 13
71 24 115 11 45 22 93 25 107 2 14 8 36 13 50 5 14 14 57 21 95 7 39 18 91 25
117 7 25 11 49 8 52 -4 3 -1 6 6 6 8 0 11 6 7 16 -3 8 -2 23 3 32 5 9 12 35
15 57 3 22 10 60 16 85 21 102 8 121 -70 100 -35 -10 -105 -62 -95 -72 2 -2
-20 -19 -49 -38 -30 -19 -52 -38 -49 -42 2 -5 -4 -8 -15 -8 -10 0 -25 -11 -32
-25 -7 -13 -16 -23 -19 -22 -3 1 -21 -13 -40 -30 -19 -18 -39 -29 -45 -26 -6
3 -8 3 -4 -1 8 -9 -31 -47 -76 -76 -17 -10 -40 -33 -51 -49 -11 -17 -26 -31
-32 -31 -7 0 -13 -4 -13 -10 0 -5 -6 -10 -14 -10 -8 0 -17 -8 -20 -17 -6 -15
-8 -15 -16 -3 -8 12 -10 10 -10 -7 0 -13 -6 -23 -14 -23 -19 0 -67 -40 -61
-51 4 -5 0 -9 -9 -9 -8 0 -28 -11 -44 -25 -16 -13 -33 -21 -38 -17 -4 4 -3 0
4 -9 10 -13 8 -18 -14 -27 -14 -7 -31 -12 -39 -12 -9 0 -12 -6 -8 -16 4 -10
-1 -17 -15 -21 -14 -3 -19 -10 -15 -21 5 -14 3 -15 -8 -4 -17 16 -32 16 -26 0
2 -7 -6 -21 -17 -31 -12 -10 -38 -34 -58 -53 -20 -19 -42 -34 -48 -34 -5 0
-10 -7 -10 -15 0 -8 -9 -15 -20 -15 -11 0 -20 -4 -20 -10 0 -5 -17 -21 -37
-34 -21 -13 -51 -37 -68 -54 -16 -16 -40 -32 -52 -36 -13 -4 -23 -14 -23 -21
0 -8 -10 -20 -22 -26 -13 -7 -31 -23 -42 -36 -10 -14 -25 -22 -33 -19 -8 3
-11 2 -8 -3 3 -5 -4 -16 -15 -24 -11 -7 -17 -17 -12 -22 4 -4 -2 -6 -13 -3
-11 2 -28 -4 -37 -14 -10 -10 -15 -18 -12 -18 4 0 1 -7 -6 -15 -15 -18 -35
-20 -24 -3 5 7 3 8 -5 4 -7 -5 -10 -15 -6 -24 3 -9 3 -13 -1 -10 -9 10 -46
-11 -39 -21 7 -13 -22 -34 -36 -25 -7 4 -9 3 -5 -4 3 -6 -7 -19 -24 -28 -16
-10 -30 -24 -30 -30 0 -6 -7 -17 -15 -24 -13 -11 -15 -10 -9 6 5 18 5 18 -10
0 -9 -11 -16 -22 -16 -26 0 -3 -13 -14 -30 -23 -16 -10 -30 -15 -30 -11 0 4
-8 -3 -19 -14 -19 -22 -48 -31 -35 -11 4 8 0 8 -15 0 -16 -9 -21 -9 -21 1 0 9
-3 9 -10 -2 -7 -11 -10 -3 -10 28 0 39 5 48 47 85 26 23 62 57 82 75 19 19 50
44 68 56 18 13 30 26 26 29 -3 4 1 7 10 7 10 0 17 5 17 12 0 6 2 9 5 6 3 -3
23 11 44 31 53 51 140 124 158 134 8 5 37 31 64 58 27 27 53 49 57 49 13 0 71
57 65 64 -4 3 -1 6 5 6 7 0 30 16 52 36 22 20 40 34 40 31 0 -3 17 11 39 31
50 48 142 127 361 311 29 25 58 50 64 55 6 6 56 49 111 96 55 46 103 89 107
95 4 5 8 7 8 3 0 -3 21 14 46 38 25 24 50 45 55 47 11 2 48 35 131 113 28 27
53 42 59 38 8 -4 9 -3 5 4 -4 6 13 25 40 44 25 18 66 52 91 76 25 23 49 42 55
42 5 0 6 5 3 10 -3 6 -1 10 4 10 6 0 29 16 51 36 21 20 44 33 50 29 5 -3 8 0
5 7 -7 19 63 68 98 68 43 0 84 -28 91 -63 3 -16 3 -35 -2 -41 -4 -6 -9 -24
-11 -41 -2 -16 -8 -33 -13 -36 -12 -8 -36 -69 -73 -189 -14 -47 -35 -103 -46
-125 -10 -22 -19 -53 -19 -68 0 -16 -4 -26 -9 -23 -5 3 -9 -4 -9 -17 0 -51
-20 -138 -35 -154 -11 -13 -13 -23 -6 -35 6 -11 6 -19 -1 -23 -5 -3 -10 -23
-10 -43 0 -27 -3 -33 -10 -22 -6 10 -8 4 -4 -21 4 -21 0 -54 -10 -83 -9 -25
-16 -65 -16 -86 0 -23 -5 -40 -11 -40 -6 0 -8 -7 -5 -17 4 -9 -1 -50 -11 -91
-11 -49 -19 -68 -24 -56 -7 22 -3 -140 4 -173 3 -12 15 -32 26 -45 23 -24 61
-35 61 -17 0 6 6 9 12 7 7 -3 17 -1 23 4 14 13 79 52 86 53 3 0 17 8 30 18 13
9 38 25 56 35 33 18 69 44 137 100 22 19 61 48 86 65 25 17 48 35 52 41 4 6 8
8 8 5 0 -3 19 12 43 34 23 21 58 49 77 62 19 12 41 30 49 39 7 9 19 16 25 16
6 0 24 14 40 30 16 17 33 30 38 30 4 0 36 23 70 50 34 28 67 50 73 50 6 0 18
8 26 18 21 22 135 104 146 103 4 0 22 14 40 31 20 19 36 27 45 23 7 -5 10 -5
6 0 -8 9 34 45 52 45 6 0 9 4 6 9 -3 5 1 12 10 15 10 4 13 2 8 -7 -4 -6 4 -2
17 11 13 12 40 33 59 45 19 13 59 40 87 60 29 20 56 37 60 37 4 0 17 9 29 21
12 11 28 21 36 23 8 1 34 18 59 37 24 20 63 46 87 59 23 13 42 27 42 32 0 4 5
8 11 8 6 0 17 7 26 15 8 8 19 13 24 9 5 -3 12 2 15 10 3 9 12 16 19 16 7 0 15
3 17 8 4 9 107 72 119 72 5 0 9 5 9 11 0 5 4 8 9 5 4 -3 16 3 26 14 10 11 22
20 27 20 9 0 69 39 78 51 3 4 40 25 83 48 43 23 75 41 70 41 -4 0 16 12 45 27
29 15 52 30 52 35 0 4 9 8 20 8 11 0 20 4 20 8 0 4 15 15 33 23 40 20 100 52
107 59 3 3 34 19 69 35 35 17 69 35 76 41 6 6 39 27 74 45 34 19 88 48 119 66
60 33 82 39 82 23z m-3872 -72 c23 -23 14 -59 -18 -71 -36 -14 -37 -20 -5 -41
33 -21 32 -59 0 -92 -19 -19 -31 -23 -48 -18 -58 18 -65 68 -15 108 26 20 30
28 20 38 -15 15 -15 43 0 68 14 22 48 26 66 8z m-2518 -18 c58 -5 145 -12 194
-15 50 -3 92 -9 95 -13 6 -7 28 -10 101 -13 19 0 58 -5 85 -10 59 -11 105 -18
160 -24 44 -5 224 -44 350 -77 44 -11 100 -25 125 -30 25 -5 60 -16 78 -24 18
-9 49 -18 68 -21 18 -3 34 -9 34 -13 0 -4 20 -11 45 -14 25 -4 45 -11 45 -16
0 -5 6 -7 14 -4 7 3 20 -1 27 -8 8 -7 21 -14 29 -16 8 -2 28 -10 44 -18 16 -8
33 -14 37 -14 14 0 179 -81 185 -91 3 -5 14 -9 25 -9 11 0 17 -5 14 -10 -3 -6
2 -13 12 -17 30 -11 63 -40 55 -48 -4 -5 2 -5 13 -1 11 4 16 4 13 0 -7 -7 61
-73 75 -74 5 0 6 -4 2 -9 -3 -5 4 -12 15 -16 11 -3 20 -10 20 -15 0 -5 17 -28
38 -51 53 -57 79 -135 63 -189 -6 -22 -16 -40 -21 -40 -6 0 -10 -8 -10 -19 0
-10 -9 -30 -20 -44 -11 -14 -20 -29 -20 -34 -1 -15 -39 -55 -49 -49 -5 3 -20
-7 -33 -22 -13 -16 -29 -27 -36 -24 -7 2 -12 -1 -12 -6 0 -5 -11 -13 -25 -16
-14 -4 -24 -10 -21 -14 2 -4 -7 -9 -21 -10 -14 -1 -38 -13 -55 -27 -29 -25
-40 -29 -65 -26 -7 1 -13 -3 -13 -9 0 -5 -9 -10 -20 -10 -11 0 -20 -4 -20 -10
0 -5 -7 -10 -16 -10 -18 0 -82 -28 -104 -45 -19 -15 -62 -26 -54 -14 3 5 -2 9
-10 9 -9 0 -16 -5 -16 -10 0 -6 -3 -9 -7 -9 -20 4 -75 -15 -80 -27 -3 -8 -16
-14 -29 -14 -13 0 -24 -5 -24 -11 0 -6 -9 -9 -20 -6 -11 3 -18 1 -14 -4 3 -5
-7 -9 -23 -9 -15 0 -40 -6 -54 -14 -14 -7 -37 -16 -52 -20 -15 -3 -27 -11 -27
-17 0 -8 -5 -7 -15 1 -9 8 -15 8 -15 2 0 -14 -54 -40 -99 -47 -27 -5 -32 -4
-21 4 8 6 10 11 4 11 -6 0 -17 -7 -24 -15 -7 -8 -21 -15 -31 -15 -11 0 -19 -5
-19 -11 0 -6 -6 -9 -12 -6 -7 2 -18 -3 -24 -11 -6 -9 -25 -17 -41 -18 -42 -3
-75 -14 -96 -32 -16 -15 -17 -14 -12 1 6 14 4 14 -18 4 -14 -6 -25 -16 -24
-20 1 -5 -11 -11 -28 -13 -50 -5 -79 -15 -87 -27 -6 -9 -8 -9 -8 1 0 6 -7 12
-16 12 -8 0 -13 -4 -9 -9 8 -15 -35 -34 -72 -33 -18 1 -33 -3 -33 -9 0 -7 -10
-9 -26 -5 -17 5 -23 3 -19 -4 4 -6 -4 -10 -19 -10 -14 0 -26 -5 -26 -11 0 -5
-4 -7 -10 -4 -5 3 -10 1 -10 -6 0 -7 -12 -9 -37 -5 -27 4 -32 3 -18 -4 l20 -9
-20 -1 c-11 -2 -24 -2 -28 -1 -5 1 -27 -7 -50 -17 -62 -29 -116 -44 -127 -37
-5 3 -10 1 -10 -4 0 -6 -11 -11 -25 -11 -15 0 -39 -7 -55 -15 -16 -8 -37 -12
-47 -9 -14 5 -15 4 -4 -4 11 -8 6 -12 -22 -17 -21 -4 -39 -11 -42 -15 -2 -4
-16 -5 -30 -2 -15 2 -36 -3 -52 -14 -35 -23 -91 -44 -120 -44 -12 0 -24 -4
-28 -9 -3 -5 -26 -21 -51 -35 -36 -20 -45 -22 -40 -9 6 14 4 14 -10 2 -10 -8
-26 -12 -37 -11 -15 3 -18 0 -14 -12 4 -11 1 -16 -12 -16 -18 0 -90 -19 -156
-41 -75 -25 -170 -47 -179 -41 -6 3 -5 -1 2 -10 11 -14 8 -17 -24 -23 -55 -10
-145 -45 -139 -54 2 -5 -7 -6 -22 -3 -19 4 -24 2 -18 -8 5 -9 2 -10 -13 -6
-11 4 -23 2 -27 -4 -3 -5 -15 -10 -25 -10 -10 0 -23 -7 -28 -16 -13 -24 -158
-29 -166 -5 -3 9 -10 26 -15 37 -8 18 -4 28 21 53 17 18 37 30 45 27 7 -3 13
-2 13 2 0 9 79 49 120 63 14 4 50 17 80 29 30 11 71 23 90 26 19 3 37 10 40
14 3 5 48 20 100 34 135 35 240 66 275 81 59 25 105 36 116 29 8 -4 9 -3 5 4
-4 7 -1 12 7 12 8 0 39 7 68 17 73 22 350 113 369 121 8 3 20 6 25 7 15 1 129
39 135 45 3 3 10 5 15 5 11 1 285 88 360 115 28 10 77 26 110 36 33 9 65 21
70 25 6 4 49 19 95 33 47 14 198 64 335 111 138 48 259 89 270 92 11 3 25 10
31 15 6 4 20 5 29 1 13 -4 16 -3 11 5 -4 7 -1 13 8 13 26 2 126 45 136 58 3 4
30 22 60 41 30 19 64 44 75 55 11 11 35 33 53 48 19 15 30 27 26 27 -4 0 2 10
13 23 12 12 28 39 37 60 14 36 14 41 -1 70 -10 18 -16 36 -15 40 1 4 -9 18
-23 31 -13 13 -22 26 -18 29 3 4 -1 7 -10 7 -9 0 -24 12 -34 28 -20 32 -74 82
-88 82 -6 0 -17 9 -24 19 -8 11 -21 17 -29 13 -11 -4 -14 -1 -9 12 5 14 2 17
-16 14 -13 -2 -21 2 -20 9 2 8 -4 10 -14 6 -11 -4 -14 -3 -9 5 4 7 1 12 -7 12
-8 0 -43 14 -78 31 -35 18 -73 35 -84 39 -11 5 -41 17 -67 29 -26 12 -57 21
-68 21 -11 0 -28 4 -38 10 -9 5 -37 15 -62 22 -25 6 -47 12 -50 13 -3 1 -22 5
-42 9 -21 5 -38 12 -38 16 0 4 -6 7 -12 7 -30 -3 -118 16 -118 25 0 5 -9 6
-20 3 -12 -4 -20 -2 -20 5 0 6 -5 8 -11 4 -12 -7 -97 9 -164 31 -50 17 -137
29 -193 27 -30 -1 -41 2 -36 10 5 7 -1 9 -20 6 -14 -3 -26 -1 -26 4 0 6 -6 8
-12 6 -7 -3 -40 -1 -73 3 -33 4 -134 15 -224 24 -90 8 -169 19 -175 24 -6 5
-155 10 -331 12 -460 5 -515 4 -515 -13 0 -4 -5 -8 -11 -8 -11 0 -40 -25 -39
-35 1 -25 -1 -29 -8 -18 -4 7 -9 -8 -10 -34 -1 -25 -6 -51 -11 -57 -4 -6 -12
-33 -16 -60 -3 -27 -13 -55 -21 -63 -8 -8 -14 -20 -14 -26 0 -7 4 -6 10 3 5 8
10 12 10 8 0 -17 -44 -195 -53 -212 -5 -11 -11 -51 -14 -90 -2 -39 -7 -73 -12
-76 -4 -3 -8 -12 -8 -20 0 -8 -7 -53 -16 -100 -47 -242 -49 -630 -4 -665 7 -5
14 -28 15 -50 1 -22 5 -52 8 -66 5 -28 -18 -83 -31 -71 -5 4 -5 -1 -2 -10 5
-14 1 -18 -19 -18 -61 0 -120 49 -130 108 -3 15 -9 29 -14 32 -24 15 -44 140
-44 280 -1 157 4 250 14 250 3 0 7 21 8 48 1 26 6 67 12 92 5 25 21 110 35
190 33 198 45 262 52 280 4 8 6 18 5 22 -2 11 47 170 68 220 21 49 27 103 10
93 -5 -3 -10 -2 -10 4 0 18 -65 31 -151 28 -48 -1 -82 -5 -75 -9 6 -5 2 -8
-11 -8 -12 0 -25 5 -28 10 -3 6 -16 10 -28 10 -18 0 -19 -2 -7 -10 13 -8 13
-10 -1 -10 -9 0 -32 -2 -50 -5 -30 -4 -31 -4 -9 5 32 12 -69 2 -108 -11 -22
-7 -20 -8 13 -4 50 6 18 -9 -38 -18 -27 -4 -36 -3 -30 6 4 8 1 7 -9 -1 -9 -7
-33 -14 -52 -15 -20 -1 -36 -6 -36 -10 0 -4 -10 -7 -22 -6 -38 3 -59 -1 -54
-10 3 -4 -7 -6 -22 -4 -23 3 -24 2 -7 -6 18 -8 18 -10 2 -10 -26 -1 -77 -58
-77 -85 0 -13 9 -33 20 -46 23 -27 26 -38 5 -20 -8 6 -19 9 -25 5 -5 -3 -10
-2 -10 4 0 6 -7 8 -15 5 -9 -4 -15 0 -15 7 0 12 -2 12 -9 0 -7 -11 -10 -9 -16
8 -3 12 -10 19 -15 16 -15 -9 -79 62 -74 82 13 50 99 109 194 133 25 6 74 20
110 30 36 11 103 24 150 30 47 6 132 17 190 25 129 17 175 21 360 35 80 5 163
12 185 14 78 8 842 -3 945 -14z m3146 -53 c13 -16 24 -34 24 -41 0 -26 -35
-57 -73 -66 -32 -7 -42 -5 -66 16 -28 23 -33 52 -16 99 7 20 6 20 -9 1 -9 -11
-16 -15 -16 -10 0 22 24 31 77 30 47 -1 59 -6 79 -29z m-159 -76 c-5 -26 -3
-29 23 -35 28 -5 30 -8 30 -55 0 -51 -13 -72 -33 -52 -14 14 -54 14 -63 0 -3
-6 -18 -9 -32 -6 -14 3 -35 0 -47 -5 -18 -8 -27 -5 -49 17 -16 16 -25 33 -21
43 3 8 -4 25 -16 38 l-21 22 21 21 c15 15 28 20 46 15 21 -5 23 -9 14 -31 -10
-27 1 -57 26 -67 8 -3 15 -12 15 -21 0 -8 5 -15 10 -15 6 0 10 7 10 15 0 17
36 39 50 30 6 -3 10 -13 10 -21 0 -8 4 -14 9 -14 13 0 6 93 -7 98 -17 5 -15
23 6 38 24 19 25 18 19 -15z m-399 -5 c20 6 20 4 9 -26 -11 -28 -10 -33 7 -46
11 -8 30 -14 42 -14 13 0 24 -8 27 -19 6 -24 64 -42 88 -28 37 23 78 -25 44
-49 -11 -8 -26 -12 -35 -9 -16 5 -30 -13 -44 -57 -3 -9 -16 -24 -30 -33 -23
-16 -27 -15 -54 0 -26 16 -28 21 -22 56 8 43 23 65 51 74 24 8 59 -11 59 -33
0 -14 2 -15 10 -2 13 21 -5 38 -48 46 -31 6 -39 3 -60 -22 -14 -16 -35 -30
-46 -31 -12 -1 -26 -2 -31 -3 -29 -6 -45 2 -45 21 0 11 -10 34 -21 51 l-22 30
30 24 c17 13 33 37 37 55 5 24 9 29 19 21 7 -6 23 -9 35 -6z m340 -184 c13
-36 -1 -62 -33 -62 -21 0 -26 -6 -31 -40 -4 -24 -12 -40 -20 -40 -8 0 -14 7
-14 15 0 28 -40 58 -70 51 -27 -5 -28 -4 -17 24 8 22 18 29 44 32 20 3 33 0
33 -7 0 -7 9 -20 20 -30 11 -10 20 -13 20 -8 0 6 -7 16 -15 23 -21 18 -19 36
7 54 35 25 65 20 76 -12z m-308 -99 c14 -9 28 -21 32 -27 4 -6 10 -7 14 -4 13
14 44 -13 44 -38 0 -16 -8 -28 -25 -36 -22 -10 -29 -8 -50 12 -14 13 -25 19
-25 14 0 -17 15 -31 45 -42 27 -10 26 -10 -16 -5 -34 4 -49 1 -61 -11 -21 -20
-22 -20 -51 7 -19 18 -23 29 -19 59 2 21 8 35 13 32 5 -3 6 -11 3 -17 -4 -7
-4 -9 1 -5 4 4 14 3 21 -3 33 -27 113 16 84 45 -7 7 -10 3 -10 -12 0 -15 -8
-24 -24 -28 -25 -6 -66 10 -66 26 0 6 -10 11 -22 11 l-23 2 23 4 c13 3 26 11
29 19 7 19 53 18 83 -3z m265 -62 c9 -15 -5 -39 -26 -44 -10 -3 -19 -1 -19 4
0 5 -4 9 -10 9 -5 0 -10 -9 -10 -19 0 -11 -5 -23 -11 -27 -7 -4 -9 -21 -5 -45
5 -30 3 -38 -11 -42 -14 -4 -13 -5 4 -6 46 -2 34 -85 -14 -94 -19 -4 -29 2
-43 25 -22 36 -15 68 14 69 15 1 16 3 4 6 -9 2 -19 15 -22 29 -4 13 -15 33
-26 44 -20 20 -20 20 1 49 25 34 48 31 46 -6 -1 -15 4 -28 13 -31 13 -5 13 -3
1 11 -17 22 1 47 31 44 12 -1 23 4 26 12 3 8 0 11 -7 7 -6 -4 -11 -3 -11 2 0
11 68 14 75 3z m12 -44 c-2 -7 4 -23 14 -36 11 -13 19 -18 19 -12 0 6 9 11 20
11 18 0 19 -3 10 -20 -8 -15 -17 -19 -31 -15 -13 4 -19 2 -19 -9 0 -19 -45
-50 -60 -41 -5 3 -10 1 -10 -5 0 -7 12 -9 35 -4 32 6 35 4 40 -22 4 -16 8 -35
10 -41 6 -17 -44 -29 -64 -16 -9 6 -16 21 -16 34 0 13 -4 31 -10 39 -5 8 -10
21 -12 29 -1 8 -4 24 -7 35 -6 27 12 51 47 60 15 3 27 11 27 16 0 6 3 10 6 10
3 0 4 -6 1 -13z m-209 -50 c60 -47 19 -137 -62 -137 -57 0 -96 78 -62 122 26
35 89 43 124 15z m636 -204 c-3 -16 -10 -44 -14 -63 -4 -19 -11 -47 -14 -61
-3 -14 -17 -31 -31 -37 -14 -6 -25 -19 -25 -28 0 -12 -6 -15 -25 -10 -18 5
-27 2 -31 -9 -4 -8 -14 -15 -24 -15 -29 0 -50 -11 -50 -26 0 -10 -6 -11 -29
-3 -25 9 -28 13 -22 41 5 24 34 55 126 134 66 57 126 104 133 104 8 0 10 -9 6
-27z m-552 0 c10 -9 18 -22 18 -28 0 -18 28 -27 50 -15 14 7 20 6 24 -7 7 -17
-38 -73 -60 -73 -18 0 -23 34 -7 49 8 7 12 16 9 19 -4 3 -12 -1 -19 -10 -18
-23 -42 -28 -69 -14 -24 13 -25 12 -26 -18 0 -17 -1 -40 -2 -51 0 -11 -10 -30
-22 -42 -12 -13 -16 -23 -9 -23 6 0 14 7 17 15 4 8 15 15 25 15 17 0 18 -3 9
-20 -6 -11 -19 -20 -30 -20 -10 0 -22 -9 -25 -20 -3 -11 -11 -20 -16 -20 -6 0
-24 -15 -40 -32 -24 -27 -31 -30 -39 -18 -5 8 -6 18 -4 22 3 4 0 8 -6 8 -6 0
-8 -10 -4 -25 4 -18 1 -32 -11 -45 -21 -24 -35 -26 -35 -6 0 8 -4 18 -10 21
-6 4 -7 -5 -4 -24 5 -25 2 -31 -22 -44 -25 -13 -31 -13 -42 -1 -19 21 -5 54
22 54 16 0 25 9 35 35 10 30 16 35 34 30 17 -4 15 -2 -5 10 -16 9 -28 18 -28
22 0 3 3 3 6 0 4 -4 14 8 23 25 9 18 21 33 26 35 18 5 39 -15 40 -39 1 -13 5
-29 9 -36 4 -7 2 -12 -3 -12 -6 0 -11 -5 -11 -12 0 -8 4 -8 14 2 8 10 11 30 9
56 -4 32 -11 44 -30 53 -33 15 -27 45 10 49 27 3 28 1 25 -29 -2 -18 2 -34 7
-36 12 -4 14 52 3 63 -12 11 -10 26 2 19 6 -3 10 -2 10 3 0 5 -9 12 -20 15
-14 4 -20 13 -20 34 1 45 19 61 58 51 39 -10 43 -42 11 -77 -20 -21 -20 -23
-3 -19 13 2 25 21 37 58 24 72 50 88 89 53z m-399 -351 c24 -22 22 -67 -5 -86
-12 -9 -18 -16 -13 -16 5 0 18 9 30 20 21 20 22 20 20 1 -2 -26 -53 -91 -71
-91 -24 0 -12 33 16 47 l25 13 -25 1 c-91 5 -113 17 -108 63 6 66 80 93 131
48z m522 -352 c10 -17 -35 -52 -61 -47 -13 2 -24 0 -24 -4 0 -5 6 -9 14 -9 20
0 26 -48 9 -66 -36 -36 -76 -1 -48 42 19 29 19 34 -1 34 -8 0 -13 -4 -10 -9 7
-11 -18 -21 -54 -21 -37 0 -54 28 -40 65 9 24 14 26 58 24 27 -1 54 1 60 5 8
5 10 2 6 -8 -8 -22 2 -20 26 4 16 16 25 18 40 10 10 -5 22 -14 25 -20z m-1100
-26 c61 -29 54 -99 -12 -125 -28 -10 -80 7 -93 31 -18 33 -12 78 12 94 28 20
51 20 93 0z m848 -50 c18 -9 42 -28 54 -43 l23 -26 -3 25 c-1 16 4 25 16 28
25 5 21 -23 -6 -45 -30 -23 -39 -47 -24 -64 10 -10 9 -11 -3 -3 -8 6 -43 10
-77 9 -34 -1 -61 1 -60 4 0 3 -3 16 -7 29 -10 29 -1 65 20 86 19 20 27 20 67
0z m-130 -265 c7 -1 16 -1 20 0 5 1 6 -3 3 -8 -4 -5 -2 -12 4 -16 15 -9 12
-58 -6 -83 -16 -23 -67 -31 -79 -12 -3 6 -11 10 -17 10 -6 0 -3 -9 7 -20 10
-11 28 -20 40 -20 64 0 59 -90 -6 -113 -38 -13 -82 58 -49 78 6 4 7 11 4 17
-4 6 -2 8 4 4 6 -3 13 -2 17 3 3 5 -2 14 -12 19 -13 8 -17 26 -19 78 -2 38 0
63 4 57 11 -17 61 5 63 27 1 11 3 10 6 -2 2 -10 10 -19 16 -19z m-495 -136
c19 -26 15 -50 -15 -83 -39 -43 -103 -53 -127 -19 -28 41 -21 84 21 118 35 29
37 30 72 15 20 -8 42 -22 49 -31z m82 -154 c0 -16 3 -19 13 -11 17 15 37 1 32
-23 -2 -11 -4 -27 -5 -35 0 -10 -9 -5 -27 15 -18 20 -24 23 -19 10 27 -66 7
-101 -53 -91 -59 9 -77 50 -40 87 16 16 28 20 52 15 24 -5 29 -4 20 5 -8 8 -9
18 -2 31 13 24 29 23 29 -3z m677 -81 c6 -7 13 -30 17 -50 7 -39 26 -53 26
-19 0 29 39 71 65 71 29 0 35 -9 37 -55 2 -45 -14 -57 -65 -51 -30 3 -37 1
-33 -10 5 -14 -9 -29 -17 -17 -2 5 -2 2 0 -5 1 -8 3 -22 3 -33 0 -12 11 -24
28 -32 29 -12 43 -27 37 -37 -2 -4 2 -7 10 -7 8 0 16 7 17 16 5 57 4 78 -3 93
-7 14 -2 20 25 33 19 9 40 14 45 10 6 -3 11 -1 11 6 0 10 3 10 11 2 7 -7 20
-8 34 -3 32 12 65 -12 57 -42 -3 -13 -10 -26 -16 -30 -6 -4 -7 -10 -3 -15 12
-11 26 16 33 64 6 44 35 66 56 45 16 -16 16 -72 -1 -85 -12 -10 -14 -9 -8 7 5
13 3 17 -7 13 -8 -3 -16 -1 -19 6 -2 6 -6 4 -10 -6 -4 -11 -1 -17 9 -17 9 0
14 -7 12 -17 -5 -26 -106 -23 -125 3 -18 24 -28 11 -11 -15 8 -14 20 -19 33
-16 17 4 16 3 -2 -6 -23 -12 -32 -49 -13 -49 6 0 10 7 10 15 0 17 30 35 58 35
16 0 62 -41 62 -55 0 -3 -90 -5 -200 -5 -211 0 -207 -1 -194 46 5 18 10 21 32
15 17 -5 28 -15 30 -29 2 -12 8 -22 13 -22 20 0 4 45 -19 56 -15 7 -20 14 -13
18 6 4 11 12 11 18 0 7 -4 7 -13 -1 -13 -10 -77 -11 -77 -1 0 3 7 15 15 26 8
12 11 25 7 29 -4 4 9 6 29 3 31 -3 35 -1 31 14 -5 22 -3 21 -37 4 -26 -14 -29
-13 -47 9 -21 27 -22 38 -6 65 14 23 60 27 75 8z m-823 -23 c23 -34 20 -62 -8
-80 -48 -32 -119 -23 -132 17 -16 53 17 86 87 87 28 1 40 -5 53 -24z m446 -5
c33 -17 40 -29 40 -66 0 -40 -58 -84 -112 -84 -20 0 -38 -3 -41 -7 -2 -5 -2
-3 -1 4 2 6 -4 17 -12 23 -27 23 -8 114 27 125 11 4 17 10 14 15 -8 13 57 5
85 -10z m-244 -22 c11 6 63 -30 69 -48 15 -47 -48 -87 -82 -53 -21 21 -18 49
6 77 13 16 13 18 1 14 -8 -2 -22 -18 -31 -36 -9 -17 -19 -29 -22 -26 -3 4 -19
-3 -34 -14 -19 -13 -34 -18 -43 -12 -17 10 -60 -9 -60 -27 0 -7 -4 -13 -10
-13 -5 0 -9 5 -7 11 1 6 -4 14 -11 16 -11 4 -12 1 -2 -17 9 -17 8 -26 -5 -47
-13 -19 -13 -24 -3 -21 7 3 19 15 25 29 13 24 13 24 13 2 0 -13 6 -24 13 -24
6 -1 22 -3 34 -4 12 -1 35 4 51 12 27 13 34 13 64 -2 l33 -16 -24 21 c-23 20
-23 21 -5 35 10 8 25 12 32 10 17 -6 75 30 84 52 6 16 7 16 7 -2 1 -12 7 -27
14 -34 10 -11 8 -12 -10 -7 -24 8 -61 -8 -80 -33 -15 -20 -17 -41 -3 -41 6 0
10 5 10 12 0 6 7 20 17 30 29 33 83 17 83 -24 0 -23 20 -24 21 0 1 9 1 20 1
23 -1 3 16 5 38 5 21 -1 36 2 34 6 -2 4 -1 9 4 12 5 3 9 0 9 -7 0 -7 4 -25 8
-40 l7 -28 -270 1 c-209 1 -273 5 -282 15 -7 9 -7 25 2 58 10 40 14 44 30 34
13 -9 21 -8 30 2 11 12 10 13 -5 8 -11 -4 -16 -3 -12 4 4 5 14 7 24 4 28 -9
64 38 59 74 -5 31 -4 31 14 11 33 -35 143 -19 131 19 -3 12 0 10 12 -4 9 -11
18 -19 21 -17z m509 -29 c20 -25 25 -41 24 -74 -2 -23 -7 -42 -13 -42 -31 0
-47 -4 -42 -12 3 -5 -1 -14 -8 -20 -9 -8 -17 -8 -20 -2 -3 5 0 11 6 13 7 3 1
7 -14 10 -35 7 -35 -1 -1 -26 23 -17 27 -17 37 -4 20 27 53 28 75 2 l21 -24
-91 0 c-87 0 -91 1 -86 21 5 19 2 20 -52 16 -32 -2 -62 -7 -68 -10 -6 -4 -14
1 -19 11 -10 22 -12 62 -3 56 4 -2 9 1 11 7 8 23 48 -10 48 -38 0 -14 3 -23 7
-19 12 11 12 40 1 53 -21 26 10 13 42 -17 18 -17 35 -28 38 -25 3 3 0 11 -6
17 -19 19 -15 92 6 110 41 36 74 35 107 -3z m-917 -98 c2 -12 6 -22 10 -22 37
-7 59 -4 69 10 15 19 17 7 3 -19 -7 -13 -7 -21 0 -25 25 -15 -7 -25 -81 -25
-62 0 -81 3 -85 15 -4 8 -12 15 -20 15 -18 0 -17 10 1 33 7 11 11 25 9 32 -4
10 7 12 43 10 40 -3 49 -7 51 -24z"/>
<path d="M4079 8588 c-1 -7 -1 -17 1 -23 1 -5 -8 -1 -19 9 -12 11 -21 14 -21
9 0 -6 7 -16 15 -23 18 -15 20 -51 3 -68 -18 -18 -53 -15 -71 6 -23 25 -21 37
9 61 17 13 21 21 12 21 -21 0 -48 -32 -48 -57 0 -29 23 -45 81 -54 75 -12 104
-45 59 -69 -30 -16 -63 5 -57 36 5 27 -8 33 -17 8 -4 -9 1 -28 10 -41 12 -20
22 -24 48 -21 29 3 34 0 43 -29 9 -28 7 -35 -14 -55 -17 -16 -34 -21 -63 -20
-34 2 -42 -1 -51 -22 -10 -20 -9 -30 5 -51 9 -14 21 -25 26 -25 16 0 12 10
-11 29 -18 15 -20 21 -10 39 15 28 56 29 71 1 9 -17 8 -24 -8 -38 -19 -16 -20
-18 -3 -40 21 -28 52 -25 66 7 5 12 17 22 25 22 17 0 40 19 40 33 0 5 -7 1
-16 -7 -16 -17 -33 -20 -58 -10 -21 8 -21 58 0 78 20 20 53 21 60 1 4 -8 10
-15 16 -15 5 0 6 5 3 10 -3 6 3 10 14 10 11 0 22 3 24 8 3 4 -13 7 -35 8 -53
0 -82 33 -74 83 6 41 19 51 69 51 67 0 110 -67 71 -111 -15 -16 -14 -17 5 -12
12 3 21 1 21 -6 0 -16 62 -30 78 -18 9 8 19 5 34 -10 29 -30 17 -57 -22 -51
-16 2 -27 1 -24 -4 6 -9 36 -11 58 -2 23 9 20 51 -4 64 -11 6 -20 20 -20 31 0
21 0 21 -18 -1 -15 -18 -25 -22 -46 -16 -15 4 -30 14 -33 23 -8 20 35 55 61
49 15 -4 16 -2 7 7 -9 9 -19 8 -41 -5 -29 -16 -30 -16 -30 3 0 11 -11 31 -24
44 -21 21 -22 25 -8 39 14 14 14 17 -3 36 -25 28 -49 21 -55 -15 -3 -17 -11
-30 -20 -30 -8 0 -26 -4 -39 -9 -14 -5 -27 -4 -34 3 -6 6 -20 11 -30 11 -15 0
-18 5 -13 23 3 12 6 32 6 45 0 13 4 21 9 18 4 -3 6 6 3 19 -5 27 -11 33 -13
13z"/>
<path d="M4497 7908 c-10 -8 -19 -32 -21 -62 -6 -55 -4 -51 -32 -60 -26 -8
-47 14 -38 39 5 13 14 16 38 11 28 -5 29 -4 13 8 -10 8 -27 12 -38 9 -21 -6
-43 -38 -35 -52 3 -5 -5 -16 -19 -25 -40 -26 -27 -77 19 -76 18 1 17 3 -7 16
-32 17 -31 34 4 51 22 11 25 10 33 -13 5 -16 4 -35 -3 -50 -6 -14 -11 -34 -11
-44 0 -11 -6 -20 -14 -20 -8 0 -17 -4 -20 -8 -3 -5 8 -9 23 -9 22 0 28 4 23
15 -3 10 -1 13 6 8 7 -4 21 -4 32 -1 27 9 27 51 -1 60 -11 4 -18 12 -16 19 3
7 1 19 -4 27 -6 10 -2 16 14 19 12 3 27 17 34 30 7 14 13 19 13 13 0 -8 12
-13 28 -13 36 0 72 37 72 73 0 41 -56 62 -93 35z"/>
<path d="M4163 7743 c-7 -2 -13 -16 -13 -29 0 -24 -1 -24 -25 -8 -31 20 -33 9
-4 -15 18 -14 20 -21 10 -38 -12 -24 -49 -39 -61 -26 -15 14 -23 63 -11 63 6
0 11 5 11 11 0 6 -16 1 -35 -11 -29 -18 -38 -20 -51 -10 -9 8 -12 21 -9 34 5
17 4 18 -4 6 -14 -20 -14 -26 5 -44 10 -10 24 -14 40 -10 19 5 24 2 24 -13 0
-10 5 -24 10 -29 8 -8 5 -21 -7 -45 -10 -19 -19 -35 -20 -37 -1 -2 -13 4 -27
13 -14 9 -39 15 -58 14 -38 -4 -80 -27 -72 -40 3 -5 1 -9 -5 -9 -5 0 -14 6
-18 13 -4 8 -16 16 -26 20 -17 6 -17 8 -1 33 13 18 23 24 39 20 35 -9 60 18
56 62 -1 17 -63 12 -69 -6 -3 -11 0 -11 16 -1 26 17 52 6 45 -20 -6 -24 -31
-35 -48 -21 -6 5 -15 6 -19 2 -4 -4 -6 -1 -4 7 9 36 -94 32 -109 -4 -9 -26 14
-65 38 -65 21 0 21 -1 6 -18 -10 -10 -17 -26 -17 -35 0 -9 -11 -17 -27 -20
l-28 -4 26 -2 c34 -1 44 -27 24 -60 -15 -24 -14 -23 9 3 19 23 22 33 14 46 -6
9 -8 29 -4 43 5 22 12 27 36 27 16 0 32 -5 35 -11 9 -14 14 -58 6 -57 -16 1
-51 -15 -51 -24 0 -6 8 -7 18 -3 38 16 49 16 56 0 3 -10 1 -25 -6 -34 -11 -14
-11 -14 2 -5 8 7 27 12 41 12 21 0 25 -4 22 -19 -7 -24 -48 -35 -68 -19 -13
11 -14 10 -9 -4 10 -25 66 -17 78 10 5 11 31 31 58 44 45 21 48 25 48 61 0 22
2 39 4 39 2 0 20 -7 40 -15 20 -9 36 -11 36 -5 0 5 8 7 18 3 13 -5 15 -3 5 7
-7 8 -9 20 -4 29 4 9 5 27 0 41 -6 22 -7 21 -8 -10 -1 -48 -15 -61 -52 -48
-33 12 -33 9 -17 43 9 20 17 25 34 21 17 -5 24 -1 29 14 5 17 10 18 26 9 14
-7 18 -16 14 -27 -5 -14 -4 -14 6 -5 10 10 9 16 -3 30 -24 28 -8 57 32 57 44
1 61 27 36 55 -19 20 -38 25 -63 14z m-161 -210 c26 -23 20 -84 -8 -85 -5 0
-20 -5 -33 -10 -14 -5 -36 -8 -50 -6 -47 5 -58 83 -17 110 20 14 89 8 108 -9z"/>
<path d="M3448 7512 c-10 -2 -18 -8 -18 -13 0 -5 11 -7 24 -3 28 7 56 -18 56
-50 0 -23 -28 -56 -47 -56 -6 0 -13 -5 -15 -10 -2 -6 -13 -2 -26 10 -23 21
-30 64 -12 75 6 3 10 11 10 17 0 7 -6 6 -15 -2 -9 -7 -15 -29 -15 -51 0 -33 4
-41 25 -49 22 -8 24 -13 15 -29 -16 -31 -12 -63 13 -89 12 -14 16 -22 10 -18
-15 8 -63 -36 -63 -59 0 -28 40 -58 70 -52 15 3 33 1 40 -6 10 -10 12 -8 7 6
-6 16 3 22 26 18 5 -1 6 3 2 9 -3 6 -11 8 -16 5 -5 -4 -9 5 -9 19 0 14 -9 35
-19 45 -11 11 -17 22 -13 25 3 3 -2 6 -12 6 -25 0 -42 44 -28 75 26 56 112 54
112 -3 0 -32 -25 -72 -46 -72 -8 0 -14 -4 -14 -10 0 -5 4 -10 9 -10 16 0 61
41 61 56 0 9 11 14 36 14 48 0 74 16 74 45 0 41 -66 61 -100 30 -22 -20 -82
-3 -62 17 7 7 12 27 12 44 0 24 -7 37 -27 51 -16 11 -36 18 -45 15z"/>
<path d="M4610 7213 c0 -5 5 -14 11 -20 9 -9 8 -16 -4 -27 -9 -9 -19 -25 -22
-36 -3 -11 -14 -20 -24 -20 -19 0 -41 -18 -41 -34 0 -5 6 -2 13 8 16 22 55 18
71 -6 8 -13 6 -22 -8 -37 -25 -27 -54 -27 -66 2 -9 22 -9 22 -9 1 -1 -12 -12
-29 -26 -38 -46 -30 -25 -95 31 -96 32 0 57 34 52 70 -6 40 30 68 62 48 38
-24 81 32 47 60 -20 17 -9 68 16 80 18 9 15 9 -15 5 -31 -5 -41 -1 -62 22 -14
15 -26 24 -26 18z"/>
<path d="M3802 6128 c-7 -7 -12 -18 -12 -26 0 -8 -14 -27 -31 -43 -29 -27 -30
-31 -16 -52 9 -12 24 -21 35 -20 16 2 22 -4 24 -24 2 -15 10 -28 18 -31 12 -4
13 -2 3 9 -20 21 -16 59 6 59 25 0 41 -22 35 -46 -6 -24 41 -70 83 -80 39 -10
93 23 93 56 0 9 -11 1 -26 -17 -28 -36 -50 -41 -94 -18 -40 21 -49 58 -21 96
21 29 14 42 -8 15 -10 -12 -16 -12 -38 -1 -31 16 -39 55 -13 55 29 0 45 27 32
55 -13 27 -49 34 -70 13z"/>
<path d="M4817 4192 c-8 -9 -74 -125 -147 -257 -73 -132 -133 -241 -135 -243
-4 -4 -169 296 -229 416 -34 68 -51 92 -65 92 -16 0 -21 -9 -26 -42 -3 -24
-17 -126 -30 -228 -14 -102 -34 -234 -44 -295 -10 -60 -16 -115 -14 -123 4 -9
19 -12 47 -10 l41 3 3 45 c4 70 32 341 39 379 l6 33 34 -63 c19 -35 73 -139
121 -231 48 -93 91 -168 97 -168 6 0 37 53 68 118 84 174 185 349 191 332 5
-17 23 -186 32 -315 10 -129 13 -135 73 -135 35 0 51 4 55 16 3 9 4 19 2 23
-5 8 -50 362 -68 538 -12 125 -22 147 -51 115z"/>
<path d="M1705 4181 c-82 -38 -124 -116 -110 -206 10 -68 58 -116 160 -160 44
-19 95 -46 113 -60 28 -23 32 -32 32 -75 0 -128 -155 -173 -243 -70 -43 51
-63 52 -70 3 -2 -21 -6 -45 -8 -53 -3 -10 15 -25 51 -43 50 -26 63 -28 135
-25 154 8 238 87 239 225 1 93 -38 136 -172 187 -37 14 -82 39 -100 55 -27 25
-32 37 -32 76 0 65 39 105 102 105 50 0 82 -19 103 -61 23 -43 40 -36 60 22
18 57 18 58 -42 85 -47 21 -168 18 -218 -5z"/>
<path d="M6453 4181 c-107 -39 -186 -118 -215 -215 -7 -23 -12 -81 -12 -131 1
-98 19 -155 71 -221 81 -102 254 -148 415 -110 85 20 108 38 108 86 0 22 -2
40 -5 40 -3 0 -22 -11 -43 -25 -107 -71 -238 -73 -331 -4 -16 12 -42 44 -58
73 -26 48 -28 58 -28 171 0 116 1 122 31 175 22 38 46 64 79 85 44 27 56 30
135 30 90 0 93 -1 186 -70 19 -14 31 2 39 51 6 38 4 42 -22 52 -97 38 -263 44
-350 13z"/>
<path d="M8415 4186 c-111 -35 -188 -106 -226 -205 -31 -83 -25 -224 14 -303
34 -70 100 -130 176 -160 48 -19 74 -23 176 -23 111 1 125 3 183 29 79 37 153
114 178 188 23 68 23 205 0 267 -35 95 -122 176 -221 206 -61 18 -224 19 -280
1z m262 -69 c41 -22 79 -62 106 -112 29 -56 36 -200 12 -281 -20 -71 -87 -142
-151 -162 -67 -20 -152 -15 -209 12 -61 28 -87 56 -117 121 -19 42 -23 66 -23
155 1 94 3 110 27 155 54 103 116 137 243 132 50 -2 92 -10 112 -20z"/>
<path d="M200 4181 c0 -6 0 -157 0 -336 0 -179 0 -329 0 -335 0 -17 304 -12
380 6 185 43 286 193 265 394 -13 120 -57 192 -148 241 l-62 34 -217 3 c-152
3 -218 0 -218 -7z m380 -73 c95 -29 132 -90 138 -230 7 -151 -35 -240 -133
-288 -49 -24 -176 -38 -239 -26 l-36 7 2 272 3 272 65 5 c78 7 152 2 200 -12z"/>
<path d="M1055 3848 l1 -343 184 0 185 0 3 37 3 37 -129 -6 c-108 -5 -130 -4
-134 9 -4 8 -5 66 -5 129 l2 114 117 -1 c123 -2 127 0 123 46 l-2 25 -120 3
-121 3 -1 75 c-1 42 1 92 5 111 l7 35 126 -3 126 -4 0 35 0 35 -185 3 -185 2
0 -342z"/>
<path d="M2204 3848 l1 -343 54 0 54 0 1 343 1 342 -56 0 -56 0 1 -342z"/>
<path d="M2554 3848 l1 -343 55 0 55 0 -3 151 c-3 115 -1 154 9 159 15 10 40
-18 176 -193 l95 -123 61 3 c33 2 62 8 63 13 2 6 -53 77 -121 159 -69 83 -124
151 -122 152 1 1 31 17 67 36 98 51 136 124 110 211 -15 52 -58 92 -114 106
-25 6 -109 11 -188 11 l-144 0 0 -342z m276 267 c41 -21 60 -53 60 -102 0 -61
-43 -108 -113 -123 -69 -16 -111 -10 -115 14 -3 11 -1 66 3 123 l7 103 64 0
c38 0 77 -6 94 -15z"/>
<path d="M3240 3845 l0 -345 188 2 187 3 0 35 0 35 -132 -4 -133 -4 0 133 0
132 118 -3 117 -4 0 39 0 40 -117 -3 -118 -2 0 112 0 112 130 -7 130 -7 0 41
0 40 -185 0 -185 0 0 -345z"/>
<path d="M5126 3848 l1 -343 186 -3 187 -2 6 25 c13 53 6 55 -136 48 l-130 -6
0 133 0 132 118 -3 117 -4 3 38 c2 25 -1 37 -10 38 -7 0 -61 0 -120 -1 l-108
-1 0 112 0 111 128 -3 127 -4 3 38 3 37 -188 0 -188 0 1 -342z"/>
<path d="M5709 4186 c-2 -2 -4 -157 -4 -343 l1 -338 189 0 190 0 0 35 0 35
-132 -4 -133 -3 0 311 0 311 -53 0 c-30 0 -56 -2 -58 -4z"/>
<path d="M7014 3848 l1 -343 55 0 55 0 0 165 0 165 192 3 193 2 2 -167 3 -168
54 0 54 0 0 340 0 340 -57 3 -57 3 3 -141 3 -140 -198 0 -198 0 3 138 3 137
-56 3 -55 3 0 -343z"/>
<path d="M7868 4183 c-2 -5 -2 -160 0 -345 l3 -338 54 0 c30 0 55 3 55 8 1 12
1 656 0 670 0 13 -106 18 -112 5z"/>
<path d="M9020 4149 l0 -41 103 3 102 4 1 -305 0 -305 57 -3 c42 -2 57 1 57
10 1 7 2 146 3 308 l2 295 103 -4 102 -3 0 41 0 41 -265 0 -265 0 0 -41z"/>
<path d="M120 3340 c0 -20 7 -20 1259 -20 998 0 1260 -3 1264 -12 4 -10 6 -10
6 -1 1 10 138 13 630 12 584 0 630 -1 634 -17 4 -16 5 -16 6 1 1 15 12 17 94
16 57 -1 95 -5 99 -12 6 -9 8 -9 8 1 0 8 17 12 49 12 30 0 51 -5 54 -12 4 -10
6 -10 6 -1 1 17 1877 19 1897 2 10 -8 14 -8 14 -1 0 8 112 11 373 10 204 0
983 0 1730 1 1350 1 1357 1 1357 21 0 20 -7 20 -4740 20 -4733 0 -4740 0
-4740 -20z"/>
<path d="M3480 3173 c-31 -12 -50 -37 -50 -68 0 -37 17 -55 83 -83 26 -12 48
-27 48 -34 6 -63 -53 -90 -100 -47 -19 18 -25 19 -32 8 -5 -8 -9 -17 -9 -21 0
-17 46 -30 93 -25 39 3 56 11 74 31 43 51 29 89 -48 126 -66 32 -80 52 -55 79
22 25 49 27 70 6 19 -19 32 -19 40 0 10 27 -65 46 -114 28z"/>
<path d="M3723 3161 c-55 -26 -77 -67 -71 -137 3 -34 12 -62 24 -75 65 -73
247 -61 288 20 20 38 20 103 1 140 -32 64 -157 90 -242 52z m148 -17 c52 -27
74 -107 44 -164 -21 -41 -53 -60 -102 -60 -63 0 -104 40 -110 106 -9 104 78
165 168 118z"/>
<path d="M4050 3098 c0 -46 -3 -107 -6 -135 -6 -49 -5 -53 15 -53 20 0 21 5
21 90 0 50 3 90 8 90 4 0 50 -43 102 -95 52 -52 99 -95 105 -95 6 0 11 51 12
135 1 128 0 135 -19 135 -18 0 -19 -5 -15 -90 2 -50 0 -89 -4 -88 -5 2 -53 45
-108 96 -55 50 -102 92 -105 92 -3 0 -6 -37 -6 -82z"/>
<path d="M4423 3051 c-61 -125 -71 -151 -55 -151 16 0 30 18 50 63 21 47 21
47 69 47 l49 0 21 -49 c15 -37 26 -49 47 -53 14 -3 26 -2 26 1 1 18 -125 271
-134 270 -6 0 -39 -58 -73 -128z"/>
<path d="M5585 3051 c-36 -72 -65 -133 -65 -136 0 -3 8 -5 19 -5 13 0 25 15
40 50 l22 50 48 0 c47 0 48 0 71 -50 20 -42 28 -50 51 -50 l28 0 -64 132 c-35
73 -68 134 -74 136 -6 2 -40 -55 -76 -127z"/>
<path d="M5990 3122 c0 -33 -3 -93 -6 -135 -7 -75 -6 -77 15 -77 21 0 22 3 20
85 -2 46 0 87 4 91 3 3 49 -36 102 -87 53 -52 101 -95 106 -97 5 -2 9 39 9 95
0 54 3 115 6 136 6 33 4 37 -14 37 -20 0 -21 -6 -24 -92 l-3 -93 -101 98 c-55
53 -104 97 -107 97 -4 0 -7 -26 -7 -58z"/>
<path d="M6470 3098 c0 -46 -3 -107 -6 -135 -6 -49 -5 -53 15 -53 20 0 21 5
21 90 0 50 3 90 8 90 4 0 50 -43 102 -95 52 -52 99 -95 105 -95 6 0 11 51 11
135 2 128 1 135 -18 135 -18 0 -19 -5 -12 -91 5 -64 4 -90 -4 -88 -6 2 -56 46
-111 97 -54 50 -102 92 -105 92 -3 0 -6 -37 -6 -82z"/>
<path d="M6899 3170 c-69 -20 -99 -61 -99 -134 0 -58 34 -107 85 -124 40 -14
170 -12 193 2 7 4 12 31 12 62 0 51 -1 54 -25 54 -23 0 -25 -3 -25 -49 0 -54
-8 -61 -66 -61 -96 0 -148 83 -110 175 26 62 110 84 175 44 27 -16 36 -18 42
-7 14 22 11 27 -28 37 -44 12 -116 13 -154 1z"/>
<path d="M2680 3041 l0 -129 25 -4 c24 -5 25 -4 25 53 0 33 3 59 8 60 102 9
135 28 140 78 6 57 -18 71 -115 71 l-83 0 0 -129z"/>
<path d="M2930 3040 l0 -130 85 0 c50 0 85 4 85 10 0 6 -27 10 -60 10 l-60 0
0 49 0 50 53 3 c28 2 52 8 52 13 0 6 -24 11 -52 13 l-53 3 0 45 0 44 55 0 c30
0 55 5 55 10 0 6 -33 10 -80 10 l-80 0 0 -130z"/>
<path d="M3161 3040 c-1 -140 -4 -131 47 -130 4 0 5 27 3 60 -1 33 1 60 5 59
5 0 32 -27 59 -59 43 -50 55 -59 84 -60 l34 0 -52 54 c-28 30 -51 58 -51 63 1
4 15 17 33 28 23 15 33 29 35 51 5 52 -17 64 -113 64 l-84 0 0 -130z"/>
<path d="M4980 3160 c0 -5 20 -10 45 -10 l45 0 0 -118 c0 -65 2 -121 5 -124 3
-3 15 -3 28 -1 22 4 22 7 18 124 l-3 119 51 0 c28 0 51 5 51 10 0 6 -47 10
-120 10 -73 0 -120 -4 -120 -10z"/>
<path d="M5270 3040 l0 -130 25 0 c24 0 25 3 25 63 l1 62 57 -63 c39 -43 66
-64 85 -66 15 -2 27 -1 27 2 0 3 -22 31 -50 63 -54 62 -58 69 -36 69 23 0 66
48 66 73 0 43 -28 57 -118 57 l-82 0 0 -130z"/>
<path d="M6621 2776 c-6 -7 -21 -12 -34 -10 -61 9 -62 9 -65 -14 -4 -26 -49
-60 -62 -46 -4 5 -10 18 -12 29 -5 19 -5 19 -13 1 -5 -11 -3 -26 4 -37 7 -12
7 -19 1 -19 -5 0 -10 5 -10 10 0 6 -3 9 -7 9 -23 -4 -47 2 -37 9 13 9 14 42 1
42 -5 0 -7 -7 -3 -15 3 -8 1 -15 -4 -15 -6 0 -10 5 -10 10 0 6 -10 10 -22 10
-12 0 -32 10 -45 22 -22 20 -34 13 -13 -8 6 -6 6 -21 -2 -41 -10 -27 -9 -35 6
-52 11 -13 14 -21 6 -26 -6 -3 -10 -28 -9 -53 1 -26 -1 -56 -5 -68 -5 -14 -2
-27 10 -38 14 -15 15 -21 4 -42 -10 -18 -11 -30 -2 -49 10 -21 9 -30 -4 -50
-27 -41 0 -106 54 -126 19 -7 21 -12 12 -28 -20 -38 -12 -61 25 -77 27 -11 40
-12 56 -3 12 6 30 9 40 6 15 -4 19 0 19 18 0 50 89 85 124 49 20 -20 20 -44 0
-73 -16 -22 -16 -23 6 -16 15 5 20 4 16 -4 -7 -10 -84 -6 -116 7 -50 19 -93
10 -108 -23 -14 -30 -1 -65 23 -65 11 0 13 -8 8 -30 -6 -34 18 -70 47 -70 13
0 16 -7 12 -30 -5 -36 14 -87 38 -100 11 -6 15 -18 12 -38 -3 -22 2 -32 23
-46 21 -14 24 -20 15 -32 -20 -23 -3 -64 28 -70 25 -5 28 -10 24 -35 -3 -21 1
-34 13 -43 14 -10 15 -17 6 -34 -16 -29 13 -92 42 -92 6 0 1 9 -11 20 -32 30
-30 76 3 84 48 12 73 -30 47 -79 -9 -16 -17 -32 -17 -35 0 -3 -7 -16 -14 -29
-12 -21 -10 -26 14 -49 25 -23 29 -24 40 -9 15 21 26 22 19 2 -4 -8 -1 -15 5
-15 6 0 11 5 11 11 0 5 5 7 11 3 6 -3 14 -2 18 3 10 17 51 -4 51 -27 0 -27
-56 -29 -63 -2 -3 9 -5 3 -6 -14 -2 -51 -61 -54 -61 -3 0 11 -4 19 -9 19 -10
0 -8 -21 4 -52 4 -10 3 -18 -3 -18 -17 0 -21 -27 -7 -53 7 -15 11 -35 8 -47
-3 -11 0 -26 5 -33 17 -20 3 -87 -17 -87 -29 0 -60 -30 -66 -63 -4 -20 -15
-37 -28 -42 -31 -14 -31 -52 -1 -59 29 -8 30 -16 4 -49 -26 -33 -26 -43 1 -18
20 19 83 26 72 8 -2 -4 1 -7 6 -7 6 0 10 -8 8 -18 -5 -29 -27 -62 -42 -62 -8
0 -19 -9 -25 -19 -16 -31 -12 -35 8 -10 21 25 52 21 52 -8 0 -10 10 -23 23
-28 12 -6 21 -17 19 -24 -3 -16 16 -41 31 -41 6 0 2 7 -9 15 -19 15 -19 15 0
30 39 29 85 5 57 -29 -9 -11 -7 -15 8 -19 14 -3 17 0 13 15 -4 18 -1 19 27 13
24 -5 31 -3 31 8 0 28 24 37 55 21 35 -18 61 -10 69 21 7 28 18 32 36 10 13
-16 4 -59 -11 -49 -18 11 -74 -6 -87 -26 -18 -29 1 -60 35 -60 15 0 36 -8 47
-18 16 -13 18 -14 8 -1 -18 24 -4 52 22 45 11 -3 24 -6 29 -6 13 0 7 -23 -10
-37 -17 -14 -17 -14 0 -9 10 3 17 0 17 -9 0 -23 30 -45 61 -45 16 0 29 -5 29
-12 1 -38 42 -59 87 -44 18 6 22 2 28 -24 10 -46 30 -60 84 -60 48 0 89 24
104 61 4 9 6 8 6 -6 0 -11 -6 -29 -14 -39 -27 -36 -13 -68 28 -65 7 0 2 4 -10
9 -27 11 -29 32 -7 55 21 20 48 1 41 -31 -2 -13 3 -26 15 -33 17 -11 18 -10 9
7 -7 13 -7 22 1 30 9 9 9 12 0 12 -7 0 -12 7 -12 15 0 9 -7 18 -15 21 -10 4
-15 20 -15 49 0 71 42 95 94 54 31 -25 33 -57 5 -93 -21 -27 -11 -38 11 -12 6
8 18 12 26 9 8 -3 14 0 14 6 0 6 -4 11 -10 11 -19 0 -10 30 17 60 32 36 55 38
81 5 11 -13 23 -21 27 -17 5 4 5 -1 2 -10 -5 -14 -1 -18 16 -18 29 0 47 -18
47 -46 0 -28 -23 -46 -52 -43 -13 2 -29 0 -36 -5 -10 -6 -11 -1 -6 20 5 18 3
25 -4 20 -6 -3 -14 -1 -18 6 -4 7 -4 10 1 6 4 -4 14 -3 22 3 16 14 18 49 2 49
-6 0 -8 -9 -4 -20 4 -12 2 -20 -5 -20 -6 0 -8 5 -5 10 4 6 -6 10 -22 10 -16 0
-34 5 -41 12 -6 6 -15 9 -18 5 -7 -7 20 -37 34 -37 19 0 40 -44 31 -66 -10
-28 -33 -36 -65 -23 -24 8 -26 14 -21 44 4 21 2 33 -4 30 -5 -4 -9 -12 -9 -20
0 -11 -6 -12 -31 -3 -16 6 -33 8 -36 4 -3 -3 8 -9 26 -12 41 -8 46 -19 23 -42
-19 -19 -19 -19 2 -32 19 -12 20 -11 8 2 -10 13 -10 17 4 22 18 7 47 -11 39
-24 -8 -12 20 -30 46 -30 13 0 40 -2 60 -6 31 -5 39 -2 57 20 18 23 25 26 60
20 50 -8 82 8 82 42 0 17 8 27 25 34 31 12 41 35 25 55 -13 16 -70 21 -70 6 0
-5 9 -7 20 -4 28 7 54 -15 39 -33 -14 -17 -56 -18 -62 -1 -2 6 -8 9 -12 5 -4
-4 0 -14 9 -23 24 -24 20 -54 -10 -67 -18 -9 -30 -9 -42 -1 -25 15 -21 56 6
68 12 5 22 15 22 22 0 7 5 13 10 13 14 0 12 54 -2 68 -7 7 -22 12 -35 12 -13
0 -23 4 -23 9 0 18 -32 41 -56 41 -15 0 -23 4 -19 10 9 15 -14 40 -36 40 -14
0 -19 7 -19 29 0 20 -8 35 -22 45 -33 24 -45 19 -14 -5 31 -24 34 -54 6 -69
-46 -25 -88 23 -54 61 18 20 9 25 -15 10 -17 -11 -43 -3 -35 10 7 12 -17 11
-36 -1 -12 -8 -11 -10 7 -10 53 0 49 -93 -4 -106 -16 -4 -21 -9 -13 -14 7 -5
2 -9 -14 -12 -20 -4 -24 -2 -17 10 5 8 6 32 4 52 -3 22 -1 40 6 44 6 4 11 14
11 22 0 8 9 23 20 34 11 11 20 29 20 40 0 20 1 20 30 5 17 -9 30 -22 30 -30 0
-8 5 -15 10 -15 16 0 11 26 -8 43 -10 10 -26 17 -35 17 -10 0 -17 8 -17 20 0
31 -36 61 -64 54 -21 -5 -25 -2 -28 23 -2 22 -9 29 -28 30 -25 3 -25 3 -2 -7
25 -11 32 -60 8 -60 -8 0 -21 -2 -28 -5 -11 -5 -14 4 -12 37 2 24 6 56 10 72
8 36 -18 61 -47 46 -16 -9 -17 -6 -12 25 6 40 -16 75 -49 75 -11 0 -18 7 -18
20 0 26 -39 51 -73 45 -15 -3 -27 -1 -27 4 0 5 -8 8 -17 7 -12 -1 -19 9 -23
29 l-6 30 -18 -27 c-24 -37 -66 -39 -66 -3 0 17 6 25 18 26 22 1 44 5 70 13
26 8 64 -26 56 -49 -4 -8 -1 -15 5 -15 6 0 11 7 11 16 0 24 -19 54 -35 54 -8
0 -15 13 -17 33 -2 22 -10 35 -25 42 -18 7 -23 18 -23 45 0 41 -24 80 -49 80
-14 0 -17 6 -13 28 2 19 -3 35 -14 47 -11 11 -17 29 -16 45 2 18 -2 30 -13 34
-12 4 -14 14 -10 39 5 24 2 37 -9 46 -10 9 -13 22 -9 42 3 18 0 35 -8 45 -8 9
-12 29 -10 43 1 14 0 23 -3 20 -3 -3 -7 -17 -8 -31 -2 -19 -7 -24 -20 -20 -24
6 -24 50 0 59 41 16 72 87 57 133 -4 12 -17 26 -30 32 -19 9 -23 16 -18 38 3
15 0 31 -6 34 -7 5 -7 14 3 29 15 23 6 67 -14 67 -6 0 -5 7 2 20 10 15 10 25
2 38 -6 9 -9 32 -6 50 3 27 0 33 -19 41 -13 5 -28 6 -33 3 -5 -3 -6 0 -2 7 4
6 11 9 16 6 5 -3 16 8 25 26 14 25 14 36 5 60 -7 15 -21 31 -32 35 -18 5 -19
7 -2 25 13 14 14 22 5 33 -8 10 -9 21 -1 40 13 34 13 32 -6 51 -13 12 -14 18
-4 30 10 13 9 19 -4 34 -11 13 -14 21 -7 26 15 9 14 52 -3 67 -10 9 -11 19 -3
35 5 12 6 30 2 40 -5 10 -7 25 -6 33 2 12 0 13 -10 3 -7 -7 -26 -13 -41 -13
-22 0 -28 5 -29 23 0 12 -3 16 -6 10 -2 -7 -12 -13 -21 -12 -11 0 -12 2 -4 6
6 2 12 9 12 14 0 6 -15 -1 -33 -15 -45 -34 -89 -34 -116 0 -17 22 -24 24 -36
14 -13 -11 -13 -14 0 -27 8 -8 15 -23 15 -33 0 -22 -39 -62 -52 -54 -5 4 -16
-3 -24 -15 -9 -12 -21 -18 -27 -15 -7 4 -9 4 -5 -1 4 -4 -2 -21 -13 -36 -46
-65 -132 -4 -97 68 25 53 127 57 121 4 -2 -12 2 -21 7 -21 9 0 12 8 12 30 1 3
-2 20 -5 38 -4 20 -2 32 5 32 9 0 48 37 48 47 0 7 -8 2 -19 -11z m-181 -195
c0 -5 15 -15 34 -22 46 -17 61 -51 41 -92 -18 -36 -18 -37 -5 -37 6 0 9 6 8
13 -2 6 2 11 9 10 6 -2 38 -5 70 -8 100 -10 104 -11 101 -48 -1 -21 -7 -33
-17 -34 -79 -8 -93 -7 -104 5 -8 11 -7 21 5 43 10 16 13 29 7 29 -5 0 -12 -7
-15 -15 -8 -19 -43 -19 -71 0 -15 10 -24 12 -28 4 -5 -7 -16 -3 -31 12 -32 30
-33 82 -1 105 22 16 22 16 -9 11 -21 -4 -38 -1 -50 9 -16 14 -17 15 -2 10 10
-3 20 -1 23 4 8 13 35 13 35 1z m-29 -257 c25 -12 30 -20 24 -37 -11 -36 -10
-82 2 -80 7 2 21 -10 33 -25 l22 -27 -27 -22 c-29 -26 -62 -29 -89 -10 -17 12
-17 17 -5 50 7 20 17 33 22 30 5 -3 13 1 18 8 15 24 10 29 -16 17 -33 -15 -69
1 -90 42 -32 61 31 93 106 54z m249 -374 c0 -5 -4 -10 -9 -10 -6 0 -6 -12 -2
-27 7 -24 7 -68 0 -110 -1 -7 -6 -13 -11 -13 -4 0 -8 -10 -8 -21 0 -17 -3 -19
-13 -10 -8 6 -17 8 -20 5 -3 -3 -19 3 -36 15 -35 26 -48 71 -30 113 11 28 15
30 60 26 26 -1 45 0 43 4 -6 9 7 38 17 38 5 0 9 -4 9 -10z m256 -56 c38 -18
44 -43 17 -66 -20 -17 -54 -32 -65 -30 -5 1 -8 -10 -8 -25 l1 -28 17 28 c28
46 72 34 85 -24 6 -24 4 -26 -19 -21 -40 7 -77 -38 -51 -64 12 -12 8 -49 -8
-70 -8 -10 -15 -37 -15 -60 0 -47 -14 -64 -52 -64 -21 0 -32 7 -40 26 -11 23
-10 29 10 45 18 14 29 16 48 9 15 -6 24 -6 24 0 0 9 -17 14 -47 13 -7 0 -11 2
-10 6 0 3 -5 17 -12 29 -10 19 -10 30 -1 52 14 33 32 42 67 34 18 -5 24 -3 19
5 -4 6 -14 11 -22 11 -16 0 -19 27 -4 32 6 2 -17 2 -50 1 -33 -1 -64 -4 -70
-8 -6 -3 -7 0 -4 9 3 9 11 13 17 9 6 -4 8 0 4 10 -3 9 -1 30 4 47 8 23 17 30
37 30 14 0 33 -7 42 -15 10 -9 24 -13 35 -9 15 6 16 8 1 16 -19 11 -21 41 -4
68 15 24 12 24 54 4z m70 -33 c20 17 63 2 74 -25 12 -34 2 -67 -30 -96 -43
-39 -55 -68 -37 -88 13 -14 13 -20 2 -36 -17 -23 -38 -11 -33 18 3 16 -1 22
-15 24 -11 0 -27 8 -35 16 -23 23 2 49 39 41 36 -8 56 2 36 18 -10 8 -17 36
-19 77 -3 36 -3 59 0 52 3 -10 7 -10 18 -1z m44 -312 c0 -6 9 -8 20 -4 21 7
23 2 20 -53 -1 -21 4 -34 14 -38 9 -3 16 -15 16 -25 0 -15 -8 -19 -32 -20 -32
-1 -32 -2 -6 -8 29 -6 68 -35 68 -50 0 -15 -29 -33 -45 -27 -8 3 -15 12 -15
21 0 8 -5 15 -11 15 -7 0 -9 -9 -6 -22 7 -24 -8 -48 -29 -48 -8 0 -14 9 -14
20 0 11 5 20 10 20 6 0 15 12 20 26 6 14 14 23 19 19 5 -3 12 -1 16 5 3 5 -3
10 -14 10 -12 0 -21 -5 -21 -10 0 -6 -11 -22 -24 -35 -21 -21 -29 -23 -51 -15
-35 13 -53 32 -47 50 7 22 34 51 57 61 18 8 17 9 -5 5 -42 -6 -73 7 -81 37 -7
24 -4 27 29 33 19 4 42 2 51 -3 11 -7 19 -6 26 4 9 12 11 11 11 -6 0 -11 -3
-18 -7 -15 -9 5 -21 -27 -13 -35 4 -3 9 0 11 7 6 15 33 16 33 1 0 -5 5 -7 11
-3 7 4 10 1 7 -6 -6 -20 -28 -24 -28 -5 0 9 -4 13 -10 10 -17 -11 -11 -33 11
-40 25 -8 27 -7 35 35 5 20 3 31 -2 27 -6 -3 -15 -3 -20 1 -15 9 -26 72 -14
72 6 0 10 -5 10 -11z m60 -245 c0 -3 -11 -15 -24 -25 -13 -10 -27 -31 -31 -46
-9 -37 -43 -73 -64 -67 -12 4 -12 3 2 -6 15 -9 22 -9 36 4 18 17 58 21 77 8 8
-5 7 -11 -4 -22 -14 -13 -15 -12 -9 3 3 9 2 17 -3 17 -6 0 -10 -8 -10 -17 0
-9 -8 -25 -17 -36 -17 -19 -17 -20 5 -8 17 9 22 9 22 -1 0 -7 9 2 20 20 26 42
55 40 55 -3 0 -29 -1 -30 -47 -29 -53 0 -64 -10 -20 -19 16 -3 34 -17 41 -30
11 -22 11 -29 -4 -55 -45 -75 -135 -60 -135 23 0 35 17 65 36 65 8 0 12 5 9
10 -4 6 -11 8 -16 4 -5 -3 -8 -2 -7 3 4 16 -23 53 -39 53 -14 0 -13 -4 5 -20
25 -23 24 -22 16 -44 -4 -9 -18 -16 -33 -16 -53 0 -69 46 -25 75 l26 17 -21
19 c-20 19 -23 29 -23 64 0 8 0 19 1 25 2 15 68 23 100 12 24 -9 32 -7 47 9
17 18 34 25 34 13z m-201 -235 c-12 -7 31 -14 71 -11 3 0 6 -18 6 -41 1 -23 4
-49 8 -59 5 -11 -2 -27 -21 -48 -26 -29 -30 -31 -56 -19 -24 11 -27 17 -26 59
l2 46 44 -1 c43 -2 57 8 28 19 -8 3 -15 13 -15 23 0 15 -2 15 -9 3 -6 -8 -8
-17 -6 -20 2 -3 -4 -6 -13 -6 -9 -1 -26 -5 -37 -9 -11 -5 -17 -5 -13 0 4 4 3
14 -3 22 -9 10 -6 19 12 36 13 13 28 21 33 19 4 -3 2 -8 -5 -13z m309 -143
c63 26 92 11 92 -47 0 -33 -5 -42 -32 -60 -19 -11 -45 -18 -60 -16 -16 2 -28
-1 -29 -7 0 -6 -4 -2 -9 9 -14 33 -11 77 7 97 9 10 11 18 5 18 -6 0 -7 9 -4
23 l7 22 3 -23 c3 -18 8 -22 20 -16z m177 -106 c12 -38 -9 -56 -59 -50 -11 1
-16 -3 -11 -9 3 -6 11 -9 16 -6 5 4 9 1 9 -4 0 -6 -4 -11 -9 -11 -5 0 -8 -12
-8 -26 0 -33 -20 -46 -58 -38 -28 6 -29 5 -11 -8 14 -11 17 -22 12 -42 -5 -22
-11 -27 -34 -24 -21 2 -28 9 -30 31 -2 19 3 33 15 43 22 16 10 18 -19 3 -15
-8 -27 -8 -47 2 -14 7 -29 12 -33 11 -12 -3 1 111 14 120 32 20 38 0 8 -27
-27 -25 -25 -40 2 -21 31 22 48 20 82 -10 23 -21 26 -28 15 -34 -11 -7 -11
-12 -1 -22 9 -9 12 -9 12 3 0 9 11 29 25 45 14 16 25 37 25 46 0 17 40 45 66
45 8 0 16 -8 19 -17z m-511 -96 c25 -10 21 -79 -6 -104 -32 -30 -98 -25 -114
9 -15 29 4 81 32 92 24 10 68 11 88 3z m526 -153 c8 -8 16 -31 17 -50 1 -20 3
-47 5 -61 2 -20 -2 -26 -19 -28 -13 -2 -23 -8 -23 -14 0 -6 7 -7 18 -3 37 16
64 17 90 4 36 -18 77 -58 69 -66 -4 -3 -7 -1 -7 5 0 7 -5 12 -12 12 -6 0 -9
-3 -5 -6 12 -12 -17 -65 -44 -79 -31 -16 -77 -19 -97 -7 -20 13 -32 70 -22 98
8 20 5 35 -15 70 -21 37 -22 44 -9 44 13 0 14 3 5 13 -6 8 -8 17 -4 21 4 4 8
13 9 19 0 7 2 20 2 30 2 19 19 19 42 -2z m-202 -14 c2 -10 -5 -28 -15 -39 -14
-16 -14 -20 -3 -16 8 2 21 19 29 36 15 32 20 35 66 35 48 0 80 -5 68 -10 -7
-2 -13 -15 -13 -29 0 -13 -8 -36 -17 -52 -16 -26 -21 -28 -52 -20 -20 6 -35
17 -38 29 -3 10 -10 19 -15 19 -6 0 -7 -7 -4 -16 4 -12 1 -14 -14 -9 -11 4
-20 2 -20 -4 0 -6 9 -11 20 -11 11 0 20 -5 20 -11 0 -5 4 -8 9 -5 5 4 20 1 33
-4 21 -10 21 -10 1 -6 -15 2 -23 -2 -26 -15 -10 -37 -72 -10 -66 28 6 36 -3
54 -29 59 -24 5 -28 10 -24 33 4 26 7 28 45 27 32 -1 43 -5 45 -19z"/>
<path d="M2825 2623 c-18 -17 -19 -28 -5 -54 12 -21 50 -25 81 -8 15 7 24 7
34 -1 8 -6 26 -10 42 -8 22 2 29 9 31 31 2 16 -1 34 -7 41 -16 19 -157 18
-176 -1z"/>
<path d="M2800 2454 c-23 -20 -34 -24 -43 -15 -6 6 -19 11 -28 11 -19 0 -59
-45 -59 -67 0 -20 45 -34 75 -23 21 8 25 7 25 -10 0 -24 46 -60 77 -60 13 0
39 6 58 14 63 27 73 131 15 161 -43 22 -84 19 -120 -11z m110 1 c38 -20 46
-54 25 -99 -13 -27 -25 -37 -50 -42 -55 -10 -79 -2 -97 35 -15 31 -15 36 -1
67 24 49 73 65 123 39z"/>
<path d="M2302 2345 c-21 -26 -20 -48 4 -93 6 -13 15 -22 19 -20 4 2 13 -4 18
-14 8 -12 7 -21 -2 -32 -19 -23 -54 -3 -45 26 4 14 2 18 -5 14 -16 -10 -14
-41 4 -56 22 -18 55 -2 62 31 3 16 11 29 18 29 24 0 55 46 55 83 0 42 -19 57
-74 57 -25 0 -40 -7 -54 -25z"/>
</g>
</svg>
